<svg width="40" height="40" viewBox="0 0 40 40" fill="none" xmlns="http://www.w3.org/2000/svg">
<path d="M1.46447 11.4645C0.526785 10.5268 0 9.25501 0 7.92893L0 5C0 2.23858 2.23858 0 5 0L7.92893 0C9.25501 0 10.5268 0.526784 11.4645 1.46447L38.5355 28.5355C39.4732 29.4732 40 30.745 40 32.0711V35C40 37.7614 37.7614 40 35 40H32.0711C30.745 40 29.4732 39.4732 28.5355 38.5355L1.46447 11.4645Z" fill="#2DC3F6"/>
<path d="M28.5355 1.46446C29.4732 0.526783 30.745 0 32.0711 0L35 0C37.7614 0 40 2.23858 40 5V7.92893C40 9.25501 39.4732 10.5268 38.5355 11.4645L31.5 18.5C31.2239 18.7761 30.7761 18.7761 30.5 18.5V18.5L22 10V10C21.4477 9.44772 21.4477 8.55228 22 8L28.5355 1.46446Z" fill="#2DC3F6"/>
<path d="M11.4645 38.5355C10.5268 39.4732 9.25501 40 7.92893 40H5C2.23858 40 0 37.7614 0 35L0 32.0711C0 30.745 0.526784 29.4732 1.46447 28.5355L8 22C8.55229 21.4477 9.44772 21.4477 10 22V22L18 30V30C18.5523 30.5523 18.5523 31.4477 18 32L11.4645 38.5355Z" fill="#2DC3F6"/>
</svg>
