<svg width="18" height="12" viewBox="0 0 18 12" fill="none" xmlns="http://www.w3.org/2000/svg">
<path d="M0 5.04909L8.33073 0.185979C8.7564 -0.0625086 9.28674 -0.0619556 9.71187 0.187419L18 5.04909L14.9565 6.84012V5.90196C14.9565 5.58213 14.5217 4.92896 14.2826 4.81455C11.6087 3.53524 6.63043 3.3007 3.71739 4.81455C3.3913 4.98401 3.06522 5.47552 3.06522 5.90196V6.84012L0 5.04909Z" fill="black"/>
<path fill-rule="evenodd" clip-rule="evenodd" d="M9 10.8913C12.4348 10.8913 14.413 9.9531 14.4783 9.27081V5.90196C14.4783 4.81455 10.7174 4.19621 9 4.19621C7.28261 4.19621 3.52174 4.68662 3.52174 5.90196V9.27081C3.52174 10.0171 5.82609 10.8913 9 10.8913ZM14.0652 9.14288C14.0652 9.9531 11.0491 10.484 9 10.4862C6.94268 10.4883 3.91304 9.97443 3.91304 9.14288C3.91304 8.31133 6.94268 7.79743 9 7.7996C11.0491 7.80177 14.0652 8.33265 14.0652 9.14288Z" fill="black"/>
<path d="M1.21743 6.24311L0.869608 6.02989V7.39449C0.869608 7.39449 0.478303 7.54374 0.478303 7.90621C0.478303 8.22604 0.782651 8.43926 0.782651 8.43926C0.782651 8.43926 1.09137e-05 9.33477 4.24592e-05 10.678C5.79136e-05 11.3361 0.304348 12 1.06526 12C1.76087 12 2.087 11.3259 2.087 10.678C2.087 9.42006 1.30439 8.43926 1.30439 8.43926C1.30439 8.43926 1.60874 8.1448 1.60874 7.90621C1.60874 7.52242 1.21743 7.39449 1.21743 7.39449V6.24311Z" fill="black"/>
</svg>
