<svg width="24" height="24" viewBox="0 0 24 24" fill="none" xmlns="http://www.w3.org/2000/svg">
<path fill-rule="evenodd" clip-rule="evenodd" d="M11.9999 0C5.37341 0 0 5.37221 0 11.9999C0 17.302 3.43834 21.7998 8.20626 23.3868C8.80578 23.498 9.02596 23.1265 9.02596 22.8095C9.02596 22.5234 9.01483 21.5781 9.00966 20.5754C5.67128 21.3013 4.96684 19.1595 4.96684 19.1595C4.42097 17.7725 3.63447 17.4037 3.63447 17.4037C2.54552 16.6589 3.71654 16.6744 3.71654 16.6744C4.92133 16.7589 5.55602 17.911 5.55602 17.911C6.6263 19.7451 8.36325 19.215 9.04801 18.9086C9.15572 18.133 9.4667 17.6034 9.80988 17.3038C7.14454 17.0007 4.34248 15.9716 4.34248 11.3736C4.34248 10.0634 4.81145 8.99297 5.57908 8.15241C5.45428 7.85037 5.04354 6.62987 5.69512 4.97697C5.69512 4.97697 6.7026 4.65446 8.99575 6.20701C9.95315 5.94093 10.9799 5.8072 11.9999 5.80263C13.0193 5.8072 14.0466 5.94053 15.0058 6.20661C17.2962 4.65406 18.3025 4.97658 18.3025 4.97658C18.9557 6.62927 18.5449 7.84997 18.4203 8.15201C19.1897 8.99257 19.6553 10.063 19.6553 11.3732C19.6553 15.9821 16.8481 16.9967 14.176 17.294C14.6066 17.6664 14.9901 18.3969 14.9901 19.5162C14.9901 21.1218 14.9762 22.4141 14.9762 22.8093C14.9762 23.1286 15.1924 23.5028 15.8005 23.385C20.5656 21.7965 24 17.3 24 11.9999C23.9998 5.37261 18.627 0.000198699 11.9999 0.000198699V0Z" fill="white"/>
<path d="M4.54522 17.229C4.51879 17.2886 4.425 17.3065 4.33955 17.2658C4.25212 17.2268 4.20343 17.1456 4.23165 17.0857C4.25748 17.0241 4.35148 17.0072 4.43831 17.0484C4.52575 17.0875 4.57543 17.1696 4.54502 17.2292L4.54522 17.229ZM5.03127 17.7713C4.97424 17.8244 4.86237 17.7997 4.78646 17.7157C4.70777 17.6322 4.69306 17.5203 4.75129 17.4665C4.8105 17.4136 4.919 17.4387 4.99769 17.5221C5.07598 17.6068 5.09148 17.7176 5.03147 17.7715L5.03127 17.7713ZM5.50461 18.4622C5.43109 18.5135 5.31066 18.4656 5.23635 18.3589C5.16282 18.252 5.16282 18.1238 5.23833 18.0727C5.31245 18.0215 5.43109 18.0678 5.5066 18.1735C5.57972 18.2818 5.57972 18.41 5.50461 18.462V18.4622ZM6.15261 19.1301C6.08704 19.2026 5.94675 19.1832 5.84421 19.0844C5.73949 18.9876 5.71028 18.8499 5.77605 18.7776C5.84282 18.7049 5.98371 18.7251 6.08684 18.8233C6.19156 18.9199 6.22316 19.0578 6.15301 19.1299L6.15261 19.1301ZM7.04682 19.5178C7.01761 19.6118 6.88288 19.6545 6.74677 19.6144C6.61104 19.5732 6.52222 19.4633 6.55004 19.3684C6.57786 19.2736 6.71358 19.2293 6.85049 19.272C6.98622 19.3129 7.07504 19.4222 7.04682 19.5178ZM8.02906 19.5895C8.03244 19.6885 7.91719 19.7704 7.77471 19.7723C7.63104 19.7757 7.51479 19.6954 7.5134 19.5981C7.5134 19.4981 7.62627 19.4172 7.76974 19.4145C7.91222 19.4119 8.02926 19.4914 8.02926 19.5893L8.02906 19.5895ZM8.94275 19.4341C8.95984 19.5305 8.86068 19.6297 8.719 19.6561C8.5799 19.6819 8.45073 19.6219 8.43285 19.5263C8.41576 19.4274 8.51671 19.3282 8.6558 19.3026C8.79769 19.2781 8.92486 19.3364 8.94275 19.4343V19.4341Z" fill="white"/>
</svg>
