<svg width="40" height="40" viewBox="0 0 40 40" fill="none" xmlns="http://www.w3.org/2000/svg">
<path fill-rule="evenodd" clip-rule="evenodd" d="M10 5C10 2.23858 7.76142 0 5 0V0C2.23858 0 0 2.23858 0 5V5C0 7.76142 2.23858 10 5 10V10C7.76142 10 10 7.76142 10 5V5ZM5 15C2.23858 15 0 17.2386 0 20V20C0 22.7614 2.23858 25 5 25H24C26.7614 25 29 22.7614 29 20V20C29 17.2386 26.7614 15 24 15H5ZM35 25C37.7614 25 40 22.7614 40 20V20C40 17.2386 37.7614 15 35 15V15C32.2386 15 30 17.2386 30 20V20C30 22.7614 32.2386 25 35 25V25ZM35 10C37.7614 10 40 7.76142 40 5V5C40 2.23858 37.7614 0 35 0H16C13.2386 0 11 2.23858 11 5V5C11 7.76142 13.2386 10 16 10H35Z" fill="#2DC3F6"/>
<path d="M0 35C0 37.7614 2.23858 40 5 40V40C7.76142 40 10 37.7614 10 35V35C10 32.2386 7.76142 30 5 30V30C2.23858 30 0 32.2386 0 35V35Z" fill="#2DC3F6"/>
<path d="M35 40C37.7614 40 40 37.7614 40 35V35C40 32.2386 37.7614 30 35 30H16C13.2386 30 11 32.2386 11 35V35C11 37.7614 13.2386 40 16 40H35Z" fill="#2DC3F6"/>
</svg>
