<svg width="35" height="35" viewBox="0 0 35 35" fill="none" xmlns="http://www.w3.org/2000/svg">
<path d="M0 35L2.4722 26.0131C0.947248 23.3828 0.145127 20.3991 0.146248 17.3424C0.15017 7.77985 7.96742 0 17.5733 0C22.2347 0.0019523 26.6101 1.80809 29.9004 5.08626C33.1904 8.36442 35.0017 12.7219 35 17.3564C34.9958 26.9187 27.1774 34.6996 17.5733 34.6996C17.5727 34.6996 17.5735 34.6996 17.5733 34.6996H17.5657C14.6491 34.6985 11.7836 33.9703 9.23826 32.5884L0 35ZM9.66608 29.4488L10.1953 29.7609C12.4187 31.0745 14.968 31.7692 17.5677 31.7706H17.5733C25.5564 31.7706 32.054 25.3036 32.0574 17.3553C32.0588 13.5034 30.5537 9.88135 27.819 7.1568C25.084 4.43224 21.4477 2.93094 17.5786 2.92926C9.58903 2.92926 3.09165 9.39551 3.08857 17.3435C3.08745 20.0673 3.85287 22.7196 5.30302 25.0149L5.64763 25.5604L4.18403 30.8796L9.66608 29.4488Z" fill="#2DC3F6"/>
<path fill-rule="evenodd" clip-rule="evenodd" d="M13.2175 10.0922C12.8914 9.37039 12.5479 9.35588 12.2375 9.34333C11.9837 9.33245 11.6931 9.33301 11.4032 9.33301C11.1129 9.33301 10.6411 9.44178 10.2422 9.87547C9.84292 10.3092 8.71777 11.3578 8.71777 13.4906C8.71777 15.6236 10.2783 17.6844 10.496 17.9739C10.7137 18.2631 13.5083 22.7796 17.9341 24.5172C21.6125 25.9613 22.3608 25.674 23.1593 25.6018C23.9577 25.5296 25.7354 24.5531 26.0982 23.541C26.4613 22.5289 26.4613 21.6615 26.3523 21.4799C26.2433 21.2995 25.9531 21.191 25.5177 20.9743C25.0823 20.7576 22.9416 19.7086 22.5423 19.5642C22.1431 19.4194 21.8528 19.3475 21.5626 19.7814C21.2721 20.2148 20.4383 21.191 20.1842 21.4799C19.9301 21.7697 19.6759 21.806 19.2406 21.589C18.8052 21.3717 17.4027 20.9143 15.739 19.4376C14.4447 18.2888 13.5705 16.8697 13.3164 16.4358C13.0626 16.0023 13.3122 15.7881 13.5078 15.5514C13.86 15.1249 14.4508 14.3582 14.596 14.0693C14.7411 13.7798 14.6685 13.5268 14.5598 13.3098C14.4508 13.0931 13.6044 10.9495 13.2175 10.0922V10.0922Z" fill="#2DC3F6"/>
</svg>
