<svg width="150" height="150" viewBox="0 0 150 150" fill="none" xmlns="http://www.w3.org/2000/svg">
<path fill-rule="evenodd" clip-rule="evenodd" d="M108.269 110.031L111.271 76.476L111.332 75.791L108.269 110.031Z" fill="#1572B6"/>
<path d="M75.0413 102.376L93.1186 97.4964L95.0094 76.476H75.0014L75.0413 102.376Z" fill="#33A9DC"/>
<path d="M75.0014 60.2678H96.4491L97.9303 43.6705H75.0564H75.0014V60.2678Z" fill="#33A9DC"/>
<path d="M75.0014 137.182L117.844 125.304L127.923 12.3893H75.0014V27.4623H115.644L111.271 76.476L108.269 110.031L75.0975 119.224V119.225L75.0237 119.246L75.0014 137.182Z" fill="#33A9DC"/>
<path fill-rule="evenodd" clip-rule="evenodd" d="M10.2656 1.5838L22.0477 133.737L74.9215 148.416L127.941 133.717L139.734 1.5838H10.2656ZM75.0014 137.182L117.844 125.304L127.923 12.3893H75.0014V27.4623H34.4556L35.9064 43.6705H75.0014V60.2678L55.7275 60.2701L57.1782 76.4783L75.0014 76.476L75.0413 102.376L75.026 102.383L56.9756 97.509L55.8213 84.5821H39.5533L41.8233 110.032L75.0237 119.246L75.0014 137.182Z" fill="#1572B6"/>
</svg>
