<svg width="150" height="150" viewBox="0 0 150 150" fill="none" xmlns="http://www.w3.org/2000/svg">
<path d="M148.459 115.377C143.115 116.737 139.811 115.436 136.846 110.983C130.189 101.01 122.842 91.4947 115.752 81.8033C114.838 80.5493 113.889 79.3189 112.705 77.7603C104.314 89.0806 95.9355 99.8618 88.0723 111.077C85.2598 115.084 82.3066 116.831 77.0566 115.413L108.604 73.0728L79.2363 34.8345C84.2871 33.8501 87.7793 34.354 90.873 38.8775C97.7051 48.8618 105.24 58.3657 112.752 68.4204C120.311 58.4009 127.752 48.8853 134.783 38.9947C137.607 34.9868 140.643 33.4634 145.717 34.94C141.873 40.0376 138.111 45.0532 134.326 50.0337C129.217 56.7486 124.201 63.5454 118.904 70.1197C117.018 72.4634 117.322 73.9868 119.01 76.2017C128.807 89.0806 138.486 102.088 148.459 115.377ZM1.57617 72.3697C2.41992 68.1392 2.98242 63.8267 4.1543 59.6782C11.1855 34.565 40.0137 24.1236 59.8184 39.6861C71.4199 48.815 74.3027 61.6822 73.7285 76.19H8.33789C7.35352 102.217 26.0918 117.932 49.9746 109.917C58.3535 107.104 63.2871 100.542 65.7598 92.3384C67.0137 88.2251 69.0879 87.5806 72.9551 88.7525C70.9746 99.0181 66.4863 107.596 57.1113 112.963C43.0488 121.002 22.9746 118.401 12.416 107.233C6.18164 100.67 3.5332 92.5025 2.36133 83.6782C2.18555 82.272 1.82227 80.8892 1.54102 79.4947C1.56445 77.1197 1.57617 74.7447 1.57617 72.3697ZM8.45508 70.6236H67.5527C67.166 51.8033 55.4473 38.4322 39.4277 38.315C21.8496 38.1743 9.2168 51.229 8.45508 70.6236Z" fill="black"/>
</svg>
