<svg width="150" height="152" viewBox="0 0 150 152" fill="none" xmlns="http://www.w3.org/2000/svg">
<path d="M49.8047 151.586C63.75 151.586 75 140.336 75 126.391V101.195H49.8047C35.8594 101.195 24.6094 112.445 24.6094 126.391C24.6094 140.336 35.8594 151.586 49.8047 151.586Z" fill="#0ACF83"/>
<path d="M24.6094 76C24.6094 62.0547 35.8594 50.8047 49.8047 50.8047H75V101.195H49.8047C35.8594 101.195 24.6094 89.9453 24.6094 76Z" fill="#A259FF"/>
<path d="M24.6094 25.6094C24.6094 11.6641 35.8594 0.414062 49.8047 0.414062H75V50.8047H49.8047C35.8594 50.8047 24.6094 39.5547 24.6094 25.6094Z" fill="#F24E1E"/>
<path d="M75 0.414062H100.195C114.141 0.414062 125.391 11.6641 125.391 25.6094C125.391 39.5547 114.141 50.8047 100.195 50.8047H75V0.414062Z" fill="#FF7262"/>
<path d="M125.391 76C125.391 89.9453 114.141 101.195 100.195 101.195C86.25 101.195 75 89.9453 75 76C75 62.0547 86.25 50.8047 100.195 50.8047C114.141 50.8047 125.391 62.0547 125.391 76Z" fill="#1ABCFE"/>
</svg>
