<svg width="150" height="150" viewBox="0 0 150 150" fill="none" xmlns="http://www.w3.org/2000/svg">
<path d="M146.195 68.4111L81.6043 3.82441C77.8872 0.104877 71.8543 0.104877 68.1313 3.82441L54.7215 17.2377L71.7348 34.251C75.6899 32.9162 80.2227 33.8115 83.3739 36.9627C84.8756 38.4658 85.9241 40.3611 86.3992 42.4321C86.8744 44.503 86.7572 46.6658 86.061 48.6732L102.458 65.0725C106.425 63.7049 111.003 64.5885 114.17 67.7619C118.599 72.1881 118.599 79.3635 114.17 83.792C113.117 84.8452 111.867 85.6806 110.491 86.2506C109.116 86.8206 107.641 87.114 106.152 87.114C104.663 87.114 103.189 86.8206 101.813 86.2506C100.437 85.6806 99.1875 84.8452 98.1348 83.792C96.5532 82.2094 95.4751 80.1944 95.0362 78.0005C94.5973 75.8066 94.8171 73.5319 95.668 71.4627L80.3774 56.1709L80.375 96.4143C81.4844 96.9606 82.4973 97.6841 83.3739 98.5564C87.8024 102.983 87.8024 110.156 83.3739 114.591C78.9454 119.017 71.7676 119.017 67.3438 114.591C62.9165 110.157 62.5532 102.984 66.9793 98.5564C68.0739 97.4631 69.1532 96.6369 70.3251 96.0838V55.4678C69.1532 54.9146 68.0751 54.0943 66.9782 52.9939C63.6254 49.6424 62.9985 44.7205 64.7188 40.6002L48.0395 23.8271L3.79654 68.1123C0.0758333 71.8353 0.0992708 77.8682 3.81997 81.5889L68.4208 146.176C72.1391 149.895 78.1766 149.895 81.9008 146.176L146.19 81.8889C149.911 78.167 149.914 72.1307 146.195 68.4111Z" fill="#F34F29"/>
</svg>
