<svg width="150" height="150" viewBox="0 0 150 150" fill="none" xmlns="http://www.w3.org/2000/svg">
<path fill-rule="evenodd" clip-rule="evenodd" d="M75 77.5992H94.8035L92.932 98.516L75 103.356V77.5992Z" fill="#F16529"/>
<path fill-rule="evenodd" clip-rule="evenodd" d="M22.309 133.448L10.5844 1.94647H139.416L127.678 133.428L74.9215 148.053L22.309 133.448ZM117.63 125.055L75 136.875V120.138L74.9262 120.158L41.8875 110.987L39.6281 85.664H55.8199L56.9672 98.5254L74.9285 103.377L74.9438 103.373V103.371L75 103.356V77.5992H74.9438H38.9074L34.5574 28.8269H74.9438H75V12.6984H127.661L117.63 125.055Z" fill="#E44D26"/>
<path d="M75 136.875L117.63 125.055L127.661 12.6984H75V28.8269H115.346L113.902 44.9543H75V61.4707H112.433L112.041 65.8019L108.008 110.987L75 120.136V120.138V136.875Z" fill="#F16529"/>
<path d="M74.9438 61.4707H75V44.9543H74.9438H52.1836L53.6578 61.4707H74.9438Z" fill="#E44D26"/>
</svg>
