<svg width="150" height="150" viewBox="0 0 150 150" fill="none" xmlns="http://www.w3.org/2000/svg">
<path d="M1.75781 1.75781V148.242H148.242V1.75781H1.75781ZM79.241 126.578C77.0789 130.971 72.9516 133.857 68.1691 135.251C60.8203 136.938 53.7914 135.976 48.5625 132.838C45.0633 130.691 42.3305 127.386 40.4754 123.579L51.6316 116.747C51.7289 116.788 52.0219 117.318 52.4133 118.002C53.8359 120.386 55.0629 122.073 57.4746 123.258C59.8441 124.066 65.0461 124.583 67.0547 120.414C68.2816 118.293 67.8914 111.475 67.8914 103.931C67.8902 92.0777 67.9453 80.2734 67.9453 68.5547H81.6668C81.6668 81.4453 81.7371 93.6539 81.6668 106.233C81.6961 113.944 82.3652 120.818 79.241 126.578ZM136.164 122.701C131.394 139.016 104.802 139.546 94.1754 128.767C91.9301 126.23 90.5227 124.904 89.1832 121.976C94.8305 118.727 94.8305 118.727 100.325 115.548C103.31 120.136 106.07 122.659 111.035 123.691C117.771 124.514 124.548 122.2 123.028 115.045C121.466 109.202 109.235 107.781 100.911 101.532C92.4609 95.857 90.4805 82.0664 97.425 74.1867C99.7395 71.2723 103.686 69.0973 107.828 68.0519L112.15 67.493C120.448 67.3254 125.634 69.5168 129.442 73.7684C130.501 74.8418 131.366 75.9996 132.983 78.5086C128.563 81.3258 128.577 81.2988 122.245 85.398C120.893 82.4848 118.649 80.6566 116.277 79.8621C112.595 78.7465 107.952 79.9594 106.989 83.85C106.655 85.0488 106.724 86.1645 107.255 88.1449C108.746 91.5469 113.753 93.0258 118.243 95.0894C131.17 100.332 135.536 105.954 136.609 112.645C137.643 118.406 136.359 122.143 136.164 122.701Z" fill="#F0DB4F"/>
</svg>
