<svg width="150" height="150" viewBox="0 0 150 150" fill="none" xmlns="http://www.w3.org/2000/svg">
<path fill-rule="evenodd" clip-rule="evenodd" d="M97.0336 40.1134C93.982 30.6119 89.0871 22.2025 82.1895 14.9662C80.4457 13.1357 78.5074 11.4587 77.291 9.18178C76.5223 7.74037 75.7898 6.27904 75.041 4.82826L74.5652 3.63177L74.4328 4.10287C74.3707 6.47006 73.0301 8.07435 71.3613 9.57318C69.4817 11.2583 67.7332 13.0888 65.9285 14.8572L60.3785 22.1568L55.8914 30.4091L52.8902 38.5126L52.8 38.638C51.1488 44.0626 50.3344 49.6408 49.9348 55.2728C49.7836 57.3904 49.957 59.5373 50.0754 61.6654C50.2453 64.7076 50.7738 67.697 51.566 70.6419C54.4453 81.3365 60.2895 90.2064 68.2805 97.7439C69.7641 99.1443 71.3684 100.418 72.9164 101.749L73.602 104.102L74.2395 107.754L74.5441 111.566C74.5406 112.34 74.509 113.117 74.5547 113.888C74.5676 114.086 74.8254 114.269 74.9707 114.458L76.2645 114.913L77.6109 115.437L77.3801 112.049L77.3695 108.711L77.8348 103.628L78.1723 102.522L79.1391 100.81C80.332 99.8509 81.6105 98.9791 82.6969 97.9115C84.6621 95.9814 86.6238 94.0244 88.3828 91.9091C90.6712 89.1674 92.6259 86.1635 94.2059 82.9607C95.2594 80.8126 96.2531 78.6212 97.0746 76.3771C97.7988 74.399 98.2477 72.3189 98.8184 70.2833L98.9684 69.8439C100.146 64.3501 100.344 58.8001 99.9117 53.215C99.5637 48.7138 98.5055 44.3697 97.0336 40.1134ZM73.7133 99.0294C73.8938 98.1259 74.1176 97.2271 74.2805 96.3201C74.1176 97.2271 73.8949 98.1259 73.7133 99.0294ZM124.773 120.661C123.805 118.806 122.385 117.397 120.507 116.473C118.935 115.699 117.244 115.36 115.505 115.31C114.202 115.273 112.894 115.34 111.588 115.356C110.429 115.37 109.269 115.39 108.11 115.379C106.747 115.365 105.384 115.324 104.021 115.286C103.795 115.279 103.635 115.324 103.529 115.554C103.364 115.911 103.168 116.256 102.966 116.647L103.193 116.72C103.869 116.84 104.549 116.942 105.221 117.076C106.086 117.249 106.475 117.745 106.515 118.474C106.574 119.513 106.597 120.553 106.594 121.594C106.576 125.712 106.547 129.83 106.516 133.947C106.514 134.219 106.509 134.502 106.436 134.758C106.35 135.053 106.257 135.435 106.037 135.58C105.641 135.835 105.196 136.004 104.73 136.078C104.073 136.186 103.963 136.215 103.758 136.862L103.669 137.186C103.57 137.538 103.623 137.608 103.991 137.611C106.103 137.635 108.213 137.68 110.324 137.673C112.249 137.666 114.175 137.783 116.093 137.421C117.906 137.08 119.598 136.483 121.143 135.471C123.146 134.158 124.588 132.402 125.348 130.111C125.962 128.261 126.1 126.373 125.891 124.438C125.761 123.12 125.381 121.838 124.773 120.661ZM121.073 131.983C119.944 134.085 118.259 135.489 115.85 135.859C114.342 136.09 112.832 136.023 111.394 135.452C110.483 135.092 110.145 134.305 110.116 133.376C110.091 132.465 110.078 131.554 110.078 130.643C110.073 127.439 110.073 124.235 110.078 121.033C110.08 120.024 110.098 119.012 110.114 118.002C110.126 117.292 110.275 117.054 110.967 116.997C114.009 116.741 116.912 117.069 119.323 119.21C120.813 120.535 121.662 122.223 122.014 124.163C122.161 124.971 122.205 125.799 122.297 126.619C122.223 128.492 121.97 130.314 121.073 131.983ZM146.607 128.513C146.007 127.052 144.871 126.137 143.442 125.551C142.955 125.351 142.452 125.186 141.926 124.991L142.11 124.874C142.678 124.51 143.311 124.215 143.801 123.767C144.991 122.676 145.486 121.303 145.254 119.673C145.034 118.123 144.26 116.985 142.879 116.247C141.625 115.579 140.272 115.335 138.873 115.336C136.452 115.338 134.03 115.375 131.609 115.379C130.774 115.381 129.94 115.319 129.105 115.307C128.944 115.304 128.704 115.345 128.634 115.453C128.443 115.746 128.317 116.084 128.181 116.41C128.102 116.599 128.18 116.704 128.396 116.732C128.979 116.811 129.56 116.911 130.144 116.998C130.95 117.119 131.34 117.538 131.389 118.35L131.4 118.832C131.401 121.357 131.409 123.883 131.399 126.408C131.384 128.93 131.36 131.452 131.327 133.974C131.324 134.291 131.28 134.61 131.235 134.925C131.166 135.401 130.911 135.729 130.424 135.832L129.045 136.104C128.882 136.137 128.646 136.132 128.579 136.233C128.326 136.611 128.122 137.025 128.15 137.524L128.292 137.563L132.925 137.677L133.854 137.673C135.457 137.654 137.062 137.686 138.663 137.604C140.396 137.517 142.024 137.003 143.529 136.118C145.131 135.175 146.364 133.931 146.802 132.061C147.083 130.867 147.084 129.666 146.607 128.513ZM134.838 117.754C134.845 117.246 135.069 117.026 135.573 117.013C136.814 116.979 138.047 116.986 139.245 117.414C140.794 117.967 141.746 119.303 141.729 120.935C141.721 121.562 141.73 122.183 141.499 122.786C141.043 123.972 140.169 124.597 138.929 124.719C138.282 124.785 137.63 124.792 137.053 124.822L135.129 124.738C134.873 124.729 134.762 124.616 134.763 124.354L134.838 117.754ZM142.814 133.567C142.194 134.916 141.064 135.625 139.65 135.871C138.523 136.064 137.367 136.013 136.261 135.722C135.434 135.51 135.096 134.845 134.931 134.108C134.82 133.615 134.838 133.028 134.829 132.515C134.814 131.722 134.825 130.078 134.825 130.078H134.809C134.809 128.906 134.812 127.892 134.805 126.768C134.804 126.525 134.845 126.404 135.142 126.414C136.194 126.445 137.25 126.463 138.302 126.504C139.243 126.54 140.125 126.819 140.953 127.266C142.214 127.945 142.973 128.986 143.182 130.416C143.341 131.5 143.273 132.566 142.814 133.567ZM27.2824 134.83L27.3047 128.459C27.3082 127.5 27.1863 126.56 26.8723 125.651C26.0063 123.147 23.618 122.006 21.1313 122.905C20.0004 123.314 18.9867 123.934 18.0188 124.637C17.4551 125.047 17.4551 125.047 17.0473 124.463C15.893 122.808 14.2441 122.242 12.3246 122.852C11.0836 123.246 9.99844 123.92 8.97071 124.703C8.87461 124.776 8.68125 124.856 8.62383 124.813C8.52774 124.742 8.46094 124.572 8.46328 124.444L8.5336 123.312C8.53946 123.074 8.49375 122.835 8.47031 122.585C8.00625 122.746 7.63594 122.906 7.24805 123C6.04922 123.293 4.84219 123.563 3.63633 123.838C3.34453 123.905 3.03633 123.993 3.00821 124.328C2.97891 124.657 3.29649 124.712 3.54258 124.811C4.06055 125.019 4.575 125.241 5.08711 125.466C5.51719 125.656 5.67774 125.999 5.67539 126.461C5.66719 128.435 5.68008 130.408 5.66836 132.382C5.66367 133.185 5.62617 133.986 5.58985 134.789C5.55703 135.501 5.31446 135.798 4.62539 135.977C4.25977 136.074 3.88828 136.138 3.52032 136.225C3.43946 136.244 3.30117 136.295 3.3 136.335C3.28477 136.683 3.26602 137.039 3.32461 137.378C3.33633 137.439 3.7043 137.439 3.90821 137.462L4.04532 137.454C5.46563 137.433 6.88594 137.411 8.30742 137.395C9.06094 137.387 9.81328 137.394 10.6313 137.394L10.7191 136.258C10.2504 136.172 9.83203 136.108 9.41953 136.017C8.77617 135.877 8.50196 135.536 8.48555 134.886L8.47383 133.957C8.4668 131.547 8.45742 129.137 8.45742 126.727C8.45742 126.376 8.60274 126.099 8.91094 125.889C9.56367 125.448 10.2527 125.098 11.0156 124.902C12.6234 124.491 14.018 125.063 14.6367 126.43C14.8324 126.861 14.9859 127.338 15.0293 127.807C15.2566 130.224 15.1582 132.642 15.0211 135.059C14.9918 135.58 14.7469 135.843 14.2324 135.97L13.0231 136.226C12.9258 136.251 12.784 136.185 12.777 136.266C12.75 136.6 12.7652 137.112 12.7652 137.112H13.0535L16.7355 137.233C17.7445 137.23 18.7547 137.352 19.7625 137.378C19.943 137.381 20.1035 137.408 20.1141 137.2C20.1256 136.876 20.1213 136.552 20.1012 136.228L19.909 136.194L18.8719 135.961C18.1723 135.796 17.9309 135.53 17.9285 134.822C17.9203 133.077 17.9438 131.333 17.9285 129.59C17.9195 128.592 17.8824 127.595 17.8172 126.6C17.7996 126.335 17.8406 126.162 18.0516 126.013C18.663 125.566 19.3508 125.234 20.0813 125.035C22.3488 124.437 24.2051 125.68 24.3223 128.018C24.4371 130.273 24.3891 132.536 24.3715 134.795C24.3656 135.581 24.1055 135.819 23.3309 136.03L23.0637 136.099C22.2703 136.289 22.2773 136.289 22.3242 137.132C22.3395 137.395 22.4121 137.463 22.6934 137.456C24.3094 137.42 25.9254 137.411 27.5414 137.397C28.2023 137.391 28.8633 137.397 29.5828 137.397L29.7293 136.3C29.0977 136.132 28.5152 136.008 27.9527 135.824C27.4559 135.655 27.2801 135.355 27.2824 134.83ZM82.9336 125.173C83.5992 124.555 83.6039 123.74 83.4176 122.834C82.8902 123.386 82.2996 123.64 81.6258 123.688C80.7223 123.752 79.8352 123.674 78.9937 123.314C76.718 122.337 74.4773 122.406 72.2438 123.478C70.3652 124.378 69.2098 125.781 69.0938 127.908C69.0199 129.271 69.2754 130.561 70.1848 131.645C70.7297 132.294 71.4293 132.715 72.218 133.006C72.5578 133.131 72.5836 133.293 72.2988 133.51C72.0885 133.668 71.8707 133.817 71.6461 133.955C71.1701 134.254 70.6912 134.549 70.2094 134.838C69.9269 135.01 69.8309 135.227 69.9234 135.561C70.1941 136.544 70.8914 137.111 71.7633 137.524L72.0809 137.746L71.8031 138.024C70.9488 138.716 70.0606 139.37 69.2426 140.105C68.5559 140.722 68.3344 141.55 68.5418 142.463C68.9602 144.285 70.1684 145.412 71.8828 145.93C74.8793 146.837 77.693 146.317 80.2582 144.542C81.7793 143.488 82.8703 142.117 83.202 140.23C83.5734 138.11 82.3957 136.27 80.2875 135.891C78.893 135.638 77.4656 135.565 76.0547 135.403C75.3961 135.328 74.7281 135.284 74.0871 135.133C73.5422 135.004 73.2715 134.56 73.3219 134.126C73.3723 133.699 73.8258 133.302 74.3449 133.261C75.3902 133.177 76.4145 133.014 77.3777 132.573C79.9301 131.406 81.1148 129.362 80.8184 126.611C80.7797 126.24 80.6953 125.875 80.6191 125.444C81.4359 125.581 82.2715 125.788 82.9336 125.173ZM75.1887 138.083C76.227 138.114 77.4082 138.178 78.5496 138.512C79.5539 138.805 80.3801 139.319 80.6238 140.44C80.918 141.795 80.2664 143.142 78.9551 143.867C77.727 144.544 76.3934 144.6 75.041 144.461C73.8832 144.341 72.8414 143.94 72.007 143.085C70.9078 141.959 70.902 140.4 72.0023 139.277C72.9855 138.274 73.5117 138.067 75.1887 138.083ZM77.7867 129.925C77.182 131.86 75.4219 132.127 74.0426 131.508C72.8672 130.982 72.3551 129.946 72.0867 128.763C71.9824 128.309 71.9578 127.836 71.8969 127.371C71.9215 126.704 72.0316 126.065 72.3188 125.465C73.1988 123.617 75.3609 123.727 76.5574 124.563C77.0707 124.922 77.4281 125.41 77.652 125.987C78.1502 127.245 78.1978 128.636 77.7867 129.925ZM66.8063 136.092C66.3876 136.028 65.9737 135.936 65.5676 135.816C64.8551 135.598 64.7684 135.464 64.7602 134.711C64.7391 132.611 64.725 130.511 64.7016 128.412C64.6898 127.467 64.5773 126.536 64.2879 125.633C63.5262 123.254 61.193 121.977 58.8586 122.679C57.5648 123.069 56.4539 123.795 55.4191 124.647L55.0418 124.936L55.043 124.548C55.0676 124.102 55.1156 123.655 55.1121 123.209C55.1098 122.976 55.0207 122.741 54.9773 122.536C54.0949 122.802 53.3039 123.069 52.4965 123.273C51.6867 123.477 50.8605 123.615 50.0414 123.782C49.6348 123.864 49.3359 124.11 49.343 124.39C49.3535 124.785 49.6805 124.861 49.9664 124.979C50.4844 125.192 51.0012 125.406 51.5133 125.633C51.8789 125.796 52.0277 126.099 52.0242 126.491C51.9984 129.22 51.982 131.951 51.9422 134.681C51.9305 135.544 51.7125 135.771 50.8641 135.961L50.4938 136.035C49.7086 136.17 49.6863 136.201 49.7402 137.03L49.7449 137.167C49.7355 137.486 49.875 137.589 50.2031 137.585C52.2891 137.561 54.3762 137.549 56.4621 137.557C57.3563 137.561 57.4524 137.49 57.4336 136.572L57.3914 136.177C56.8805 136.091 56.3918 136.029 55.9137 135.924C55.4133 135.812 55.234 135.607 55.1871 135.099C55.1438 134.633 55.1297 134.161 55.125 133.692C55.1016 131.547 55.0828 129.401 55.0723 127.256C55.0699 126.716 55.1695 126.215 55.6664 125.867C56.3977 125.344 57.2599 125.035 58.1566 124.974C60.0176 124.846 61.432 125.949 61.5328 127.804C61.657 130.092 61.6195 132.389 61.6488 134.683C61.6512 134.854 61.6207 135.026 61.5973 135.196C61.5527 135.531 61.3887 135.783 61.0488 135.87C60.7172 135.956 60.3809 136.034 60.0422 136.085C59.5371 136.16 59.5266 136.157 59.4879 136.667L59.5008 137.01C59.5606 137.603 59.5617 137.585 60.1617 137.579C62.1797 137.563 64.1965 137.552 66.2133 137.555C67.057 137.557 67.1168 137.517 67.1238 136.648L67.1215 136.442C67.1344 136.219 67.0348 136.129 66.8063 136.092ZM94.9922 122.823C92.8769 122.306 90.8707 122.691 88.9652 123.676C87.1137 124.634 85.8762 126.114 85.4051 128.158C84.9293 130.224 85.1566 132.239 86.0695 134.158C86.6637 135.403 87.5777 136.367 88.8223 136.992C91.7355 138.46 95.2992 137.794 97.5844 135.831C99.3879 134.283 100.05 132.222 100.09 129.67C100.065 129.415 100.041 128.923 99.9726 128.435C99.5894 125.658 97.6664 123.477 94.9922 122.823ZM96.5941 133.552C96.0328 135.762 94.1215 136.744 91.9652 135.985C90.8648 135.598 90.0422 134.858 89.4891 133.859C88.2164 131.562 87.9715 129.12 88.6957 126.614C89.1785 124.945 90.552 124.033 92.1855 124.147C93.6457 124.249 94.7684 124.95 95.5922 126.138C96.4605 127.392 96.7957 128.819 96.8848 130.316C96.9 130.556 96.8871 130.797 96.8871 131.038L96.9902 131.05C96.8613 131.885 96.8004 132.737 96.5941 133.552ZM41.7926 122.787C39.5672 122.278 37.4824 122.781 35.5512 123.912C33.8813 124.889 32.802 126.349 32.3883 128.257C32.0004 130.04 32.1586 131.792 32.7902 133.499C33.1746 134.54 33.757 135.455 34.6113 136.169C36.4102 137.67 38.5125 138.049 40.7496 137.631C42.6434 137.276 44.3074 136.435 45.5168 134.861C46.6488 133.389 47.0801 131.699 47.1246 129.867C47.0578 129.287 47.0414 128.697 46.9184 128.131C46.3066 125.305 44.6543 123.44 41.7926 122.787ZM43.6078 133.545C43.0652 135.743 41.1234 136.75 38.9824 135.99C37.6078 135.502 36.7125 134.495 36.1465 133.205C35.2395 131.132 35.0543 128.974 35.6414 126.788C36.0914 125.115 37.4473 123.884 39.5227 124.179C40.7965 124.36 41.7902 125.01 42.5309 126.045C43.5316 127.44 43.8609 129.039 43.9066 130.718V131.061L43.991 131.074C43.868 131.899 43.807 132.738 43.6078 133.545Z" fill="#4FAA41"/>
</svg>
