<svg width="150" height="150" viewBox="0 0 150 150" fill="none" xmlns="http://www.w3.org/2000/svg">
<path d="M132.739 35.5471L81.0633 5.54124C77.8043 3.68499 73.5609 3.68499 70.2762 5.54124L18.048 35.5471C14.6848 37.4819 12.3047 41.1182 12.3047 45.0076V104.94C12.3047 108.829 14.7469 112.467 18.1102 114.412L31.909 122.249C38.5043 125.498 40.8352 125.498 43.8363 125.498C53.6016 125.498 59.1797 119.593 59.1797 109.293V50.1252C59.1797 49.2897 58.7449 48.0463 57.9246 48.0463H51.3352C50.5008 48.0463 48.6328 49.2897 48.6328 50.124V109.292C48.6328 113.858 44.5031 118.401 36.7852 114.542L22.527 106.324C22.0301 106.054 21.6797 105.512 21.6797 104.94V45.0076C21.6797 44.4428 22.3301 43.8756 22.8305 43.5862L74.8898 13.6319C75.3762 13.3565 76.091 13.3565 76.5762 13.6319L128 43.5791C128.493 43.8756 128.319 44.4252 128.319 45.0076V104.94C128.319 105.512 128.534 106.068 128.047 106.344L76.384 136.315C75.941 136.581 75.3914 136.581 74.9062 136.315L61.6559 128.406C61.2562 128.174 60.7816 128.091 60.3984 128.306C56.7117 130.395 56.032 130.673 52.5738 131.872C51.723 132.168 50.468 132.683 53.0543 134.132L70.3957 144.391C72.0513 145.347 73.9295 145.851 75.8414 145.851C77.7656 145.851 79.65 145.352 81.3105 144.391L132.738 114.412C136.102 112.453 137.695 108.829 137.695 104.94V45.0076C137.695 41.1182 136.102 37.4912 132.739 35.5471ZM91.8867 95.4428C78.1453 95.4428 75.1184 91.6518 74.1094 84.8186C73.9922 84.0826 73.3676 83.2026 72.6187 83.2026H65.9027C65.0719 83.2026 64.4039 84.2104 64.4039 85.0377C64.4039 93.7869 69.1606 104.388 91.8879 104.388C108.34 104.388 117.772 97.9951 117.772 86.6819C117.772 75.4647 110.194 72.5209 94.2387 70.4092C78.1113 68.2776 76.4731 67.2006 76.4731 63.4225C76.4731 60.3076 77.8605 56.1533 89.8019 56.1533C100.472 56.1533 104.405 58.4432 106.023 65.635C106.161 66.3112 106.779 66.7963 107.476 66.7963H114.219C114.634 66.7963 115.03 66.6287 115.321 66.3323C115.602 66.0135 115.751 65.6139 115.713 65.185C114.669 52.8006 106.441 47.0291 89.8008 47.0291C74.9988 47.0291 66.1688 53.2799 66.1688 63.7576C66.1688 75.1225 74.9543 78.2631 89.1633 79.6682C106.161 81.3346 107.483 83.819 107.483 87.1623C107.483 92.969 102.821 95.4428 91.8867 95.4428Z" fill="#83CD29"/>
</svg>
