<svg width="150" height="150" viewBox="0 0 150 150" fill="none" xmlns="http://www.w3.org/2000/svg">
<path d="M100.767 87.9615C101.508 81.7951 101.286 80.8904 105.879 81.8888L107.045 81.9919C110.577 82.1525 115.198 81.4236 117.911 80.1626C123.754 77.4521 127.218 72.924 121.457 74.1134C108.314 76.824 107.411 72.3755 107.411 72.3755C121.289 51.7845 127.091 25.647 122.084 19.2486C108.427 1.79701 84.7852 10.0494 84.3891 10.2638L84.2625 10.2884C81.6656 9.74818 78.7605 9.42709 75.4957 9.37436C69.5484 9.27709 65.0355 10.9341 61.6125 13.5298C61.6125 13.5298 19.4379 -3.84556 21.3996 35.3806C21.8168 43.7255 33.3609 98.5236 47.1293 81.972C52.1613 75.9204 57.0246 70.8029 57.0246 70.8029C59.4398 72.4072 62.3309 73.2251 65.3637 72.931L65.598 72.7318C65.5254 73.483 65.557 74.2177 65.693 75.0872C62.1457 79.0517 63.1887 79.7478 56.0965 81.2068C48.9223 82.6857 53.1375 85.3177 55.8879 86.0056C59.2254 86.8412 66.9422 88.0236 72.1582 80.7216L71.9508 81.5548C73.343 82.6681 73.248 89.5552 73.4449 94.4759C73.6418 99.3966 73.9723 103.988 74.9754 106.697C75.9785 109.404 77.1621 116.378 86.482 114.381C94.2703 112.71 100.225 110.308 100.767 87.9615Z" fill="black"/>
<path d="M83.4469 119.245C79.3242 119.245 76.6406 117.651 75.0094 116.111C72.5484 113.79 71.5723 110.798 70.9898 109.011L70.7379 108.264C69.5637 105.094 69.1664 100.531 68.9309 94.6552C68.8961 93.7366 68.8668 92.8179 68.843 91.899C68.823 91.1947 68.7984 90.3111 68.7633 89.3841C67.2781 90.0924 65.7017 90.591 64.0793 90.8654C61.173 91.3623 58.0488 91.2005 54.791 90.3861C52.493 89.8119 50.1047 88.6212 48.7441 86.7814C44.7773 90.256 40.9934 89.7837 38.932 89.097C35.2957 87.8841 32.0414 84.4775 28.9816 78.679C26.8031 74.5505 24.6949 69.1693 22.7156 62.6876C19.2703 51.399 17.0812 39.5091 16.8867 35.6068C16.275 23.3876 19.5633 14.6501 26.6602 9.63803C37.8574 1.72904 54.8203 6.37904 61.0043 8.49076C65.1586 5.98647 70.0465 4.76654 75.5707 4.85561C78.5379 4.90365 81.3621 5.16498 83.9859 5.63139C86.7223 4.77123 92.1293 3.53608 98.318 3.61225C109.72 3.74819 119.169 8.19193 125.641 16.463C130.26 22.3646 127.977 34.756 126.204 41.6185C123.711 51.2689 119.341 61.5357 113.974 70.4724C115.432 70.483 117.543 70.3072 120.545 69.6884C126.468 68.465 128.198 71.6408 128.668 73.0622C130.552 78.7658 122.366 83.0747 119.812 84.2595C116.541 85.7794 111.207 86.704 106.839 86.5037L106.648 86.4908L105.5 86.39L105.387 87.3462L105.278 88.2826C104.985 99.6076 103.366 106.779 100.037 111.52C96.5484 116.487 91.698 117.881 87.4266 118.796C86.1196 119.086 84.7856 119.236 83.4469 119.245ZM74.7727 78.0251C77.434 80.1544 77.6672 84.1611 77.8746 91.6494C77.9004 92.5833 77.925 93.4681 77.9578 94.2943C78.0586 96.7951 78.2941 102.652 79.2105 105.127C79.3406 105.476 79.4566 105.833 79.5785 106.208C80.6004 109.339 81.1137 110.908 85.5328 109.961C89.2441 109.167 91.1508 108.453 92.6437 106.327C94.8141 103.236 96.0281 97.0212 96.2508 87.8501L100.765 87.9603L96.2812 87.4224L96.4125 86.3033C96.8426 82.6142 97.152 79.947 99.6188 78.1845C101.597 76.7701 103.853 76.9072 105.649 77.2306C103.676 75.7411 103.13 73.9904 102.984 73.2732L102.608 71.4193L103.665 69.849C109.759 60.8068 114.785 49.6939 117.455 39.3591C120.197 28.7396 119.36 23.0994 118.525 22.0329C107.455 7.88725 88.2562 13.7267 86.2523 14.3912L85.9125 14.574L84.2133 14.8915L83.3426 14.7111C80.9437 14.213 78.2789 13.9376 75.4207 13.8908C70.9312 13.8158 67.3102 14.8763 64.3406 17.1298L62.2805 18.6919L59.8887 17.7064C54.7816 15.6181 39.777 11.4193 31.8598 17.0267C27.4652 20.1392 25.4637 26.2388 25.909 35.1556C26.0555 38.0994 28.057 49.2427 31.3547 60.0521C35.9145 74.9888 40.0582 79.9494 41.7879 80.5271C42.0891 80.6291 42.873 80.0197 43.6523 79.0845C48.7219 72.9873 53.543 67.9048 53.7457 67.6904L56.3602 64.94L59.5207 67.04C60.7945 67.8872 62.1996 68.3665 63.6434 68.4568L71.182 62.0279L70.0898 73.1724C70.0652 73.4232 70.0535 73.763 70.1519 74.3958L70.4801 76.5087L68.8945 78.2841L73.0359 80.1966L74.7727 78.0251Z" fill="black"/>
<path d="M121.46 74.1134C108.316 76.824 107.413 72.3744 107.413 72.3744C121.29 51.7833 127.091 25.6447 122.085 19.2474C108.427 1.79584 84.7852 10.0494 84.3902 10.2638L84.2625 10.2861C81.6656 9.74819 78.7605 9.42709 75.4945 9.37436C69.5473 9.27709 65.0355 10.933 61.6125 13.5287C61.6125 13.5287 19.4367 -3.84557 21.3984 35.3806C21.8156 43.7255 33.3598 98.5236 47.1281 81.972C52.1602 75.9204 57.0223 70.8029 57.0223 70.8029C59.4375 72.4072 62.3285 73.2251 65.3602 72.931L65.5957 72.7318C65.523 73.4829 65.5559 74.2177 65.6895 75.0872C62.1434 79.0517 63.184 79.7478 56.0941 81.2068C48.9187 82.6857 53.134 85.3177 55.8867 86.0056C59.223 86.8412 66.941 88.0236 72.1559 80.7216L71.9473 81.5548C73.3371 82.6681 74.3133 88.7958 74.1492 94.3505C73.9852 99.9052 73.8762 103.719 74.9719 106.697C76.0676 109.675 77.1586 116.378 86.4797 114.381C94.268 112.711 98.3039 108.386 98.8664 101.172C99.2648 96.0427 100.166 96.8009 100.223 92.2142L100.948 90.0427C101.781 83.0888 101.08 80.8458 105.879 81.89L107.045 81.9919C110.577 82.1537 115.199 81.4236 117.912 80.1626C123.755 77.4509 127.22 72.924 121.46 74.1134Z" fill="#336791"/>
<path d="M83.918 116.46C76.1473 116.461 73.6863 110.308 72.6785 107.792C71.2055 104.105 70.8867 89.7943 71.2148 78.058C71.2367 77.6661 71.4106 77.2983 71.6995 77.0326C71.9883 76.767 72.3694 76.6245 72.7617 76.6355C73.154 76.6465 73.5266 76.8101 73.8001 77.0915C74.0737 77.3729 74.2267 77.7499 74.2266 78.1423C73.848 91.6786 74.3859 103.945 75.4758 106.673C77.1785 110.929 79.7602 114.652 87.0621 113.089C93.9938 111.602 96.5894 108.973 97.7449 102.272C98.6332 97.1291 100.386 82.4982 100.602 79.6107C100.632 79.2124 100.818 78.8422 101.121 78.5816C101.424 78.3209 101.817 78.1912 102.216 78.2208C102.614 78.2505 102.984 78.4372 103.245 78.7398C103.505 79.0424 103.635 79.4362 103.605 79.8345C103.38 82.8392 101.634 97.4431 100.712 102.785C99.3469 110.701 95.8184 114.291 87.6926 116.034C86.4528 116.308 85.1876 116.451 83.918 116.46ZM41.7879 86.4076C41.1088 86.4068 40.4344 86.2956 39.791 86.0783C34.7438 84.3943 29.9367 76.1747 25.5023 61.6458C22.1273 50.5857 19.9887 39.0427 19.8012 35.2915C19.2445 24.1705 22.1098 16.3013 28.3148 11.9044C40.5914 3.20561 61.2445 11.4896 62.1176 11.8458C62.484 11.9992 62.7749 12.291 62.9271 12.6579C63.0793 13.0247 63.0804 13.4368 62.9302 13.8045C62.78 14.1722 62.4906 14.4656 62.1251 14.6209C61.7595 14.7762 61.3474 14.7808 60.9785 14.6337V14.6349C60.7793 14.5529 40.9746 6.61928 30.0504 14.3665C24.7441 18.1294 22.3078 25.1185 22.8082 35.1427C22.9664 38.3021 24.9645 49.5697 28.3828 60.7681C32.3414 73.7372 36.8473 81.9228 40.7438 83.2212C41.3543 83.4263 43.2152 84.0462 45.8777 80.847C50.884 74.8236 55.4836 70.0165 55.5293 69.9685C55.8094 69.6971 56.1837 69.5449 56.5737 69.5438C56.9637 69.5427 57.3389 69.6928 57.6205 69.9625C57.9021 70.2323 58.0682 70.6008 58.0838 70.9904C58.0994 71.3801 57.9634 71.7606 57.7043 72.0521C57.6586 72.099 53.1293 76.8345 48.1934 82.7724C45.8555 85.5826 43.6137 86.4076 41.7879 86.4076ZM107.319 73.7173C107.046 73.7177 106.777 73.6436 106.543 73.5029C106.308 73.3622 106.117 73.1602 105.988 72.9188C105.86 72.6773 105.8 72.4054 105.814 72.1323C105.829 71.8592 105.918 71.5953 106.071 71.3689C120.1 50.5517 125.024 25.3997 120.806 20.0115C115.498 13.2287 108.001 9.6849 98.5266 9.48217C91.5105 9.32983 85.9336 11.1216 85.023 11.4345L84.7945 11.5271C83.8781 11.8154 83.175 11.3126 82.9102 10.7255C82.7592 10.3891 82.7365 10.0092 82.8461 9.65721C82.9557 9.3052 83.1902 9.0054 83.5055 8.8142L83.9109 8.64779L83.891 8.65365L83.9121 8.64662C85.4602 8.08061 91.1215 6.38139 98.1351 6.46225C108.62 6.5724 117.28 10.6165 123.179 18.154C125.971 21.7212 125.977 29.9396 123.197 40.7009C120.363 51.672 115.031 63.4646 108.57 73.0529C108.432 73.2579 108.246 73.4258 108.028 73.5416C107.809 73.6575 107.566 73.7179 107.319 73.7173ZM108.035 83.3537C105.64 83.3537 103.493 83.0173 102.207 82.2462C100.886 81.4552 100.634 80.3783 100.601 79.8076C100.24 73.4747 103.734 72.372 105.517 71.8693C105.268 71.4943 104.914 71.0525 104.55 70.5966C103.511 69.2982 102.088 67.5193 100.991 64.8591C100.82 64.4443 100.281 63.4775 99.6574 62.3595C96.2789 56.3021 89.25 43.6962 93.7652 37.2404C95.8559 34.2533 100.016 33.0779 106.147 33.7341C104.344 28.2392 95.7539 11.049 75.375 10.715C69.2449 10.6119 64.2176 12.4974 60.4406 16.3107C51.9832 24.8525 52.2902 40.3072 52.2938 40.4607C52.2989 40.6584 52.2651 40.8551 52.1942 41.0397C52.1233 41.2243 52.0168 41.3932 51.8806 41.5366C51.7445 41.68 51.5814 41.7952 51.4008 41.8756C51.2201 41.956 51.0254 42.0001 50.8277 42.0052C50.6301 42.0104 50.4333 41.9765 50.2487 41.9057C50.0641 41.8348 49.8953 41.7282 49.7518 41.5921C49.6084 41.456 49.4932 41.2929 49.4128 41.1123C49.3324 40.9316 49.2884 40.7369 49.2832 40.5392C49.2645 39.8537 48.948 23.6361 58.3008 14.1908C62.6777 9.77045 68.4387 7.58842 75.4242 7.70209C88.4648 7.91654 96.8566 14.5447 101.602 20.0689C106.772 26.0876 109.308 32.7275 109.516 34.9423C109.672 36.59 108.49 36.9205 108.251 36.9685L107.708 36.9814C101.691 36.0181 97.8305 36.6861 96.2344 38.9677C92.7996 43.8755 99.4488 55.7994 102.288 60.8923C103.014 62.1908 103.536 63.1294 103.775 63.7095C104.708 65.9712 105.925 67.4911 106.902 68.7122C107.761 69.7868 108.506 70.7173 108.773 71.8119C108.896 72.0287 110.652 74.6232 121.064 72.474C123.674 71.9361 125.238 72.3966 125.716 73.8427C126.657 76.6892 121.378 80.0079 118.455 81.3661C115.833 82.5837 111.653 83.3537 108.035 83.3537ZM103.604 79.5591C103.934 79.8931 105.586 80.4673 109.009 80.3208C112.051 80.1896 115.261 79.5275 117.188 78.6345C119.651 77.4908 121.294 76.2122 122.146 75.3392L121.672 75.4259C115.015 76.8005 110.306 76.6177 107.678 74.881C107.501 74.7645 107.331 74.6381 107.168 74.5025C106.883 74.615 106.62 74.6888 106.432 74.7415C104.94 75.1599 103.398 75.5923 103.604 79.5591ZM60.6 87.972C58.9465 87.972 57.2062 87.7482 55.4285 87.3017C53.5875 86.8412 50.482 85.4548 50.5301 83.1779C50.5828 80.622 54.2988 79.8556 55.6992 79.5673C60.7523 78.5267 61.0816 78.1095 62.6613 76.1044C63.1219 75.5197 63.6949 74.7919 64.4754 73.9189C65.6356 72.6216 66.9035 71.963 68.2441 71.963C69.177 71.963 69.9434 72.2806 70.4484 72.4892C72.0609 73.1572 73.4063 74.772 73.9594 76.7056C74.4586 78.4494 74.2207 80.1275 73.2891 81.4306C70.2328 85.7115 65.8453 87.972 60.6 87.972ZM53.7832 83.3079C54.2379 83.6583 55.1473 84.1271 56.1586 84.3814C57.6984 84.7658 59.1914 84.9615 60.6 84.9615C64.8914 84.9615 68.3356 83.1837 70.8387 79.681C71.3602 78.9498 71.2043 78.0228 71.0648 77.5341C70.7719 76.5123 70.0453 75.583 69.2965 75.2712C68.8898 75.1025 68.5535 74.9736 68.2441 74.9736C68.0777 74.9736 67.5727 74.9736 66.7207 75.9263C66.0012 76.7302 65.4844 77.3865 65.0262 77.9665C63.0598 80.4638 62.1586 81.3111 56.3063 82.5169C54.8789 82.8122 54.1465 83.1099 53.7832 83.3079ZM65.3637 76.3611C65.0042 76.3605 64.6567 76.2315 64.384 75.9973C64.1113 75.763 63.9314 75.439 63.8766 75.0837C63.8381 74.8337 63.813 74.5818 63.8016 74.329C59.9648 74.2564 56.2641 72.6111 53.4551 69.679C49.9031 65.9724 48.2859 60.8372 49.0195 55.5908C49.8164 49.8931 49.5187 44.8634 49.3582 42.1611C49.318 41.6052 49.2934 41.0484 49.2844 40.4912C49.2867 40.0154 49.2961 38.7509 53.5207 36.6099C55.023 35.8482 58.0359 34.5193 61.3266 34.1783C66.7805 33.6158 70.3746 36.0439 71.4504 41.0173C74.3543 54.447 71.6801 60.3872 69.7277 64.7244C69.3633 65.5306 69.0199 66.2947 68.7457 67.033L68.5031 67.6857C67.4719 70.4513 66.5801 72.8408 66.8543 74.6267C66.9146 75.0215 66.8158 75.4241 66.5796 75.7461C66.3434 76.0682 65.9892 76.2835 65.5945 76.3447L65.3637 76.3611ZM52.3055 40.9072L52.3652 41.983C52.5316 44.7896 52.841 50.0138 52.002 56.0091C51.3973 60.3357 52.7191 64.5603 55.6289 67.5966C57.9281 69.9966 60.9563 71.3208 64.0676 71.3208H64.132C64.4813 69.8525 65.059 68.3033 65.6813 66.6333L65.9227 65.9853C66.2332 65.1509 66.5965 64.3435 66.9809 63.4892C68.8605 59.3126 71.1996 54.1142 68.5055 41.6537C67.9711 39.1869 66.6773 37.7583 64.5504 37.2872C60.1816 36.3216 53.6719 39.6076 52.3055 40.9072ZM61.3945 40.2685C61.3195 40.8005 62.3707 42.222 63.7395 42.4119C65.107 42.6029 66.2777 41.4919 66.3516 40.9599C66.4254 40.4267 65.3754 39.8408 64.0055 39.6497C62.6379 39.4587 61.4672 39.7353 61.3945 40.2685ZM64.0547 42.9369L63.6703 42.9099C62.8207 42.7915 61.9617 42.256 61.3746 41.4767C61.1684 41.2037 60.8309 40.6716 60.8977 40.1982C60.9938 39.5033 61.8398 39.0884 63.1629 39.0884C63.4594 39.0884 63.7664 39.1107 64.077 39.1529C64.7988 39.2537 65.4703 39.4622 65.966 39.7388C66.825 40.2193 66.8883 40.7537 66.8496 41.0314C66.743 41.7966 65.5219 42.9369 64.0547 42.9369ZM61.8938 40.3576C61.9371 40.6857 62.7492 41.7697 63.8086 41.9162L64.0535 41.9337C65.0309 41.9337 65.7621 41.1638 65.8477 40.9119C65.7574 40.7408 65.1293 40.313 63.9363 40.149C63.6798 40.1121 63.4209 40.0933 63.1617 40.0927C62.3977 40.0915 61.9887 40.2638 61.8938 40.3576ZM103.051 39.1822C103.125 39.7154 102.076 41.1369 100.706 41.3267C99.3375 41.5165 98.1668 40.4068 98.0918 39.8736C98.0191 39.3415 99.0691 38.7544 100.438 38.5646C101.807 38.3724 102.976 38.6513 103.051 39.1822ZM100.391 41.5986C99.0727 41.5986 97.9371 40.5732 97.8434 39.9087C97.7355 39.1107 99.0492 38.5036 100.404 38.3162C100.702 38.274 100.997 38.2529 101.282 38.2529C102.45 38.2529 103.223 38.5962 103.301 39.1482C103.351 39.5068 103.077 40.0587 102.604 40.5556C102.292 40.8837 101.636 41.4521 100.743 41.5751L100.391 41.5986ZM101.28 38.7544C101.019 38.7544 100.747 38.7744 100.472 38.8119C99.1102 39.0005 98.3004 39.5478 98.3391 39.8408C98.3848 40.1619 99.2531 41.097 100.39 41.097L100.67 41.0771C101.413 40.9728 101.971 40.4888 102.237 40.2087C102.654 39.7693 102.82 39.3568 102.8 39.215C102.776 39.031 102.274 38.7544 101.28 38.7544ZM105.023 69.754C104.751 69.7539 104.483 69.6797 104.249 69.5393C104.015 69.3989 103.824 69.1976 103.696 68.957C103.567 68.7163 103.507 68.4453 103.52 68.1729C103.534 67.9005 103.621 67.6369 103.773 67.4103C106.979 62.6208 106.392 57.7353 105.825 53.0126C105.582 50.9994 105.333 48.9193 105.398 46.9212C105.464 44.8669 105.724 43.1724 105.977 41.5318C106.276 39.59 106.559 37.7537 106.441 35.5763C106.433 35.185 106.577 34.8057 106.843 34.5186C107.109 34.2316 107.476 34.0593 107.867 34.0383C108.258 34.0173 108.642 34.1492 108.937 34.406C109.232 34.6629 109.416 35.0246 109.45 35.4146C109.583 37.9037 109.263 39.9802 108.954 41.99C108.715 43.5404 108.468 45.1435 108.408 47.0173C108.35 48.7857 108.577 50.6642 108.816 52.6517C109.42 57.6755 110.104 63.3697 106.276 69.0849C105.986 69.5185 105.509 69.754 105.023 69.754Z" fill="white"/>
<path d="M3.32227 119.73C5.00483 119.457 6.70719 119.324 8.41172 119.334C11.0309 119.334 12.9516 119.943 14.1703 121.04C15.2977 122.015 15.968 123.508 15.968 125.337C15.968 127.196 15.4184 128.658 14.3824 129.725C12.9809 131.218 10.6957 131.979 8.10586 131.979C7.31367 131.979 6.58242 131.949 5.97422 131.797V140.024H3.32227V119.73ZM5.97422 129.632C6.55312 129.785 7.28437 129.845 8.16797 129.845C11.366 129.845 13.3172 128.292 13.3172 125.458C13.3172 122.746 11.3977 121.436 8.47266 121.436C7.31484 121.436 6.43125 121.527 5.97422 121.649V129.632ZM32.025 132.527C32.025 137.981 28.2457 140.358 24.6809 140.358C20.6895 140.358 17.6121 137.433 17.6121 132.77C17.6121 127.835 20.8418 124.94 24.9246 124.94C29.1609 124.939 32.025 128.017 32.025 132.527ZM20.325 132.679C20.325 135.909 22.1836 138.346 24.8039 138.346C27.3633 138.346 29.2816 135.939 29.2816 132.618C29.2816 130.12 28.0336 126.951 24.8637 126.951C21.6938 126.951 20.325 129.876 20.325 132.679ZM35.0402 137.28C35.8324 137.798 37.234 138.346 38.5746 138.346C40.5246 138.346 41.4387 137.371 41.4387 136.152C41.4387 134.873 40.6781 134.172 38.6965 133.441C36.0457 132.496 34.7965 131.034 34.7965 129.267C34.7965 126.89 36.716 124.94 39.8848 124.94C41.3777 124.94 42.6891 125.367 43.5117 125.854L42.8414 127.804C41.9346 127.245 40.8902 126.95 39.825 126.951C38.2406 126.951 37.357 127.865 37.357 128.962C37.357 130.181 38.2418 130.729 40.1613 131.46C42.7207 132.435 44.0309 133.715 44.0309 135.909C44.0309 138.499 42.0199 140.327 38.516 140.327C36.9012 140.327 35.4082 139.931 34.3723 139.321L35.0402 137.28ZM50.7023 121.039V125.274H54.5402V127.315H50.7023V135.268C50.7023 137.096 51.2191 138.132 52.7133 138.132C53.237 138.139 53.7595 138.078 54.2672 137.949L54.3891 139.96C53.8723 140.173 53.0484 140.326 52.0137 140.326C50.7645 140.326 49.7578 139.929 49.118 139.198C48.3574 138.406 48.082 137.096 48.082 135.359V127.315H45.7969V125.274H48.082V121.74L50.7023 121.039ZM70.0805 125.275C70.0184 126.342 69.9586 127.53 69.9586 129.327V137.889C69.9586 141.271 69.2883 143.343 67.8562 144.624C66.4242 145.965 64.3523 146.391 62.4938 146.391C60.7266 146.391 58.7766 145.965 57.5871 145.172L58.2574 143.131C59.2324 143.74 60.7559 144.289 62.584 144.289C65.3262 144.289 67.3371 142.857 67.3371 139.14V137.494H67.2762C66.4535 138.865 64.8691 139.962 62.584 139.962C58.9277 139.962 56.3074 136.854 56.3074 132.77C56.3074 127.774 59.5676 124.94 62.9496 124.94C65.5102 124.94 66.9117 126.281 67.5516 127.499H67.6125L67.7344 125.275H70.0805ZM67.3078 131.095C67.3078 130.638 67.2773 130.242 67.1555 129.876C66.668 128.322 65.3578 127.042 63.4078 127.042C60.8473 127.042 59.0203 129.206 59.0203 132.618C59.0203 135.513 60.4828 137.92 63.3773 137.92C65.0227 137.92 66.5156 136.884 67.0945 135.177C67.2469 134.72 67.309 134.202 67.309 133.745V131.095H67.3078ZM74.2231 129.876C74.2231 128.139 74.1926 126.646 74.1012 125.275H76.4484L76.5387 128.17H76.6605C77.3309 126.189 78.9457 124.94 80.7434 124.94C81.048 124.94 81.2602 124.97 81.5039 125.031V127.56C81.2041 127.495 80.8978 127.464 80.591 127.469C78.702 127.469 77.3602 128.901 76.9957 130.912C76.9205 131.324 76.8797 131.742 76.8738 132.161V140.022H74.2231V129.876ZM85.3758 133.136C85.4367 136.762 87.7512 138.255 90.4324 138.255C92.3531 138.255 93.5098 137.92 94.5152 137.493L94.9723 139.413C94.0277 139.839 92.4129 140.327 90.0668 140.327C85.527 140.327 82.8152 137.341 82.8152 132.892C82.8152 128.444 85.4355 124.939 89.7316 124.939C94.5457 124.939 95.8254 129.174 95.8254 131.886C95.8254 132.434 95.7645 132.861 95.734 133.135H85.3758V133.136ZM93.2367 131.217C93.266 129.51 92.5348 126.86 89.5195 126.86C86.8078 126.86 85.6195 129.358 85.4051 131.217H93.2367Z" fill="black"/>
<path d="M98.8723 136.792C100.309 137.655 101.95 138.118 103.625 138.133C106.337 138.133 107.921 136.701 107.921 134.629C107.921 132.71 106.825 131.613 104.052 130.546C100.7 129.358 98.6285 127.621 98.6285 124.727C98.6285 121.527 101.279 119.151 105.271 119.151C107.373 119.151 108.896 119.638 109.811 120.156L109.079 122.32C107.881 121.675 106.54 121.34 105.179 121.345C102.376 121.345 101.31 123.02 101.31 124.422C101.31 126.342 102.558 127.286 105.393 128.383C108.866 129.725 110.633 131.399 110.633 134.416C110.633 137.585 108.287 140.327 103.443 140.327C101.462 140.327 99.2988 139.748 98.2008 139.017L98.8723 136.792ZM131.2 143.038C128.551 142.343 125.929 141.551 123.339 140.662C122.912 140.51 122.486 140.357 122.089 140.357C117.214 140.174 113.04 136.579 113.04 129.967C113.04 123.386 117.062 119.151 122.607 119.151C128.183 119.151 131.81 123.477 131.81 129.541C131.81 134.812 129.373 138.194 125.96 139.382V139.504C128.002 140.022 130.226 140.51 131.962 140.814L131.2 143.038ZM129.006 129.663C129.006 125.549 126.874 121.313 122.516 121.313C118.037 121.313 115.843 125.457 115.874 129.906C115.843 134.263 118.25 138.194 122.394 138.194C126.63 138.194 129.006 134.355 129.006 129.663ZM135.251 119.486H137.903V137.798H146.678V140.022H135.251V119.486Z" fill="#336791"/>
</svg>
