<svg width="150" height="150" viewBox="0 0 150 150" fill="none" xmlns="http://www.w3.org/2000/svg">
<g opacity="0.444">
<path d="M74.2849 8.34129C69.3373 8.36473 64.6146 8.78543 60.4568 9.52137C48.2107 11.6847 45.9888 16.2128 45.9888 24.5647V35.5932H74.9259V39.2694H35.1279C26.7185 39.2694 19.3544 44.3237 17.0505 53.9425C14.3927 64.9639 14.2755 71.8429 17.0505 83.3518C19.1072 91.9194 24.0197 98.0225 32.4302 98.0225H42.3806V84.8014C42.3806 75.2495 50.6435 66.8249 60.458 66.8249H89.3623C97.4084 66.8249 103.83 60.1991 103.83 52.1202V24.5659C103.83 16.7225 97.2138 10.8315 89.3623 9.52254C84.3888 8.6952 79.2314 8.31903 74.2849 8.34129ZM58.6357 17.2112C61.624 17.2112 64.0662 19.6921 64.0662 22.7436C64.0662 25.7823 61.6251 28.2397 58.6357 28.2397C55.6357 28.2397 53.2064 25.7823 53.2064 22.7436C53.2052 19.6921 55.6357 17.2112 58.6357 17.2112Z" fill="url(#paint0_linear_1301_54)"/>
<path d="M107.438 52.1202C107.438 62.0811 98.9916 70.4659 89.3611 70.4659H60.4568C52.5396 70.4659 45.9888 77.2429 45.9888 85.1718V112.728C45.9888 120.569 52.8068 125.183 60.4568 127.432C69.6162 130.124 78.4005 130.611 89.3611 127.432C96.6455 125.321 103.829 121.077 103.829 112.728V101.699H74.9259V98.0214H118.299C126.709 98.0214 129.845 92.1561 132.77 83.3507C135.791 74.2862 135.661 65.5686 132.77 53.9413C130.691 45.5683 126.722 39.2682 118.299 39.2682H107.438V52.1202ZM91.181 109.051C94.1822 109.051 96.6115 111.508 96.6115 114.55C96.6115 117.599 94.181 120.08 91.181 120.08C88.1927 120.08 85.7517 117.599 85.7517 114.55C85.7517 111.508 88.1927 109.051 91.181 109.051Z" fill="url(#paint1_linear_1301_54)"/>
<path d="M114.033 134.141C114.033 138.293 96.6701 141.66 75.2541 141.66C53.8369 141.66 36.4744 138.293 36.4744 134.141C36.4744 129.988 53.8357 126.621 75.2541 126.621C96.6701 126.621 114.033 129.987 114.033 134.141Z" fill="url(#paint2_radial_1301_54)"/>
</g>
<defs>
<linearGradient id="paint0_linear_1301_54" x1="11.0945" y1="13.468" x2="108.392" y2="88.8643" gradientUnits="userSpaceOnUse">
<stop stop-color="#5A9FD4"/>
<stop offset="1" stop-color="#306998"/>
</linearGradient>
<linearGradient id="paint1_linear_1301_54" x1="93.1691" y1="103.968" x2="56.9399" y2="57.5438" gradientUnits="userSpaceOnUse">
<stop stop-color="#FFD43B"/>
<stop offset="1" stop-color="#FFE873"/>
</linearGradient>
<radialGradient id="paint2_radial_1301_54" cx="0" cy="0" r="1" gradientUnits="userSpaceOnUse" gradientTransform="translate(75.0973 133.926) rotate(-90) scale(7.52147 33.0631)">
<stop stop-color="#B8B8B8" stop-opacity="0.498"/>
<stop offset="1" stop-color="#7F7F7F" stop-opacity="0"/>
</radialGradient>
</defs>
</svg>
