<svg width="150" height="150" viewBox="0 0 150 150" fill="none" xmlns="http://www.w3.org/2000/svg">
<path d="M86.9402 19.3948C86.7058 19.4651 85.4754 19.8753 84.1746 20.2972C77.2137 22.5706 72.2801 25.2073 71.0613 27.305C70.5926 28.1019 70.5105 28.7581 70.7801 29.4026C71.0848 30.1292 71.6473 30.6917 73.1941 31.7815C73.9207 32.2972 75.1512 33.3519 75.9598 34.1487C79.7918 37.969 81.6434 42.6565 81.4324 47.9534C81.198 53.9183 78.3973 59.8831 73.0535 65.8362C71.1902 67.9222 69.2684 69.6566 65.6004 72.598C62.5418 75.0472 60.8777 76.6409 59.741 78.1761C56.2605 82.9105 57.198 87.1292 62.4949 90.6566C67.1707 93.7737 75.409 96.3636 85.1355 97.7698C88.3933 98.2386 92.073 98.5433 92.9637 98.4144L93.5848 98.3206L94.5574 96.5628C99.491 87.6917 101.975 79.3128 102.28 70.6526C102.409 66.7855 101.929 62.2151 101.096 59.5433C100.944 59.0628 100.839 58.6526 100.85 58.6409C100.862 58.6292 102.245 58.2073 103.909 57.7151C112.686 55.1019 121.182 53.0394 128.202 51.8206C129.573 51.5862 130.733 51.3401 130.792 51.2816C131.167 50.9183 130.077 49.2073 128.296 47.3792C121.733 40.6058 110.132 35.4495 96.5144 33.2464C93.8894 32.8245 93.573 32.6722 92.6004 31.3831C91.0535 29.3323 89.6004 25.8401 87.6199 19.43C87.5613 19.219 87.5027 19.2191 86.9402 19.3948ZM87.8426 21.8089C88.6043 23.8948 89.073 25.5237 89.073 26.098V26.555L88.4285 26.4847C84.9246 26.0745 79.323 25.2073 78.1277 24.8909C77.823 24.8089 77.6473 24.6917 77.7059 24.598C77.7996 24.4573 78.9832 23.8831 82.5223 22.2776C85.8152 20.7776 87.0691 20.2269 87.1746 20.2151C87.2215 20.2034 87.5145 20.93 87.8426 21.8089ZM80.4246 26.2034C84.702 27.1058 87.8309 27.6683 88.5105 27.6683C89.1785 27.6683 89.1082 27.7269 85.9559 29.6487C83.5301 31.1253 83.2488 31.2659 82.6394 31.2659H81.9715L80.1668 29.4495C77.9871 27.2464 76.5105 25.6292 76.5105 25.4417C76.5105 25.3714 76.5574 25.348 76.616 25.3831C76.6746 25.3948 78.3973 25.7698 80.4246 26.2034ZM77.2605 28.2308C78.3152 29.4612 79.1238 30.4925 79.077 30.5276C78.9832 30.6097 75.9832 29.8714 74.1551 29.3089C72.5496 28.8167 72.3621 28.6526 72.784 28.1019C73.0652 27.7386 75.1277 26.0159 75.2801 26.0042C75.327 26.0042 76.2058 27.0003 77.2605 28.2308ZM90.9246 30.762C91.3465 31.7581 91.6629 32.5667 91.6512 32.5784C91.6277 32.5901 86.0027 31.723 85.5105 31.6292C85.4051 31.6058 86.3543 30.9612 87.6433 30.1761C88.9324 29.3909 90.0105 28.805 90.0691 28.8636C90.1277 28.9222 90.5027 29.7659 90.9246 30.762ZM78.6551 32.6605C78.7605 32.7659 80.1082 37.0901 80.0496 37.1487C80.0262 37.1722 79.3934 36.4339 78.6316 35.4964C77.8699 34.5589 76.7215 33.2347 76.0535 32.555L74.8582 31.3011L76.7098 31.9456C77.741 32.2855 78.6082 32.6136 78.6551 32.6605ZM84.034 33.2347C86.366 33.5628 88.2996 33.8675 88.3348 33.9026C88.3699 33.9378 86.952 35.0394 85.2059 36.3401C83.448 37.6409 82.0066 38.6956 81.9832 38.6722C81.9598 38.6487 81.784 38.1097 81.5848 37.4534C81.3855 36.8089 80.8933 35.4612 80.4832 34.4534C80.073 33.4456 79.7449 32.6253 79.7683 32.6253C79.7801 32.6253 81.702 32.9066 84.034 33.2347ZM89.8934 35.098C90.409 36.305 90.6082 37.4534 90.6902 39.762C90.7371 41.0042 90.7371 42.012 90.7019 42.012C90.6551 42.012 89.9168 41.7542 89.0613 41.4495C87.3504 40.8284 83.9988 39.7269 83.6004 39.6448C83.4246 39.6097 84.2332 38.8362 86.366 37.0081C88.0184 35.5784 89.4246 34.4183 89.4949 34.4183C89.5535 34.4183 89.7293 34.723 89.8934 35.098ZM95.9051 35.3909C98.4832 35.9183 100.745 36.387 100.921 36.4339C101.179 36.4925 100.557 36.8792 97.8269 38.3792C95.9519 39.4105 93.8191 40.5823 93.0926 40.9925C92.366 41.4026 91.7566 41.719 91.7449 41.7073C91.7332 41.6956 91.8035 41.3089 91.909 40.8519C92.2957 39.1761 92.0496 37.0901 91.2762 35.4261C91.0535 34.9456 90.866 34.512 90.866 34.4886C90.8777 34.3597 91.3465 34.4534 95.9051 35.3909ZM102.948 38.5433C102.819 39.1292 102.526 40.1253 102.304 40.7698C101.811 42.1878 100.007 45.8792 99.7605 45.973C99.6668 46.0081 98.8113 45.6214 97.8855 45.1058C96.9598 44.5901 95.6121 43.9105 94.909 43.594L93.6199 43.0198L98.3426 39.9847C102.257 37.4769 103.077 36.9964 103.124 37.219C103.159 37.3714 103.077 37.9573 102.948 38.5433ZM106.405 37.4651C111.304 38.8714 116.483 40.7698 116.179 41.0511C116.12 41.1097 115.475 41.3206 114.761 41.5198C111.057 42.5628 105.913 44.344 103.511 45.4105C102.761 45.7386 102.116 45.9847 102.081 45.9378C102.046 45.9026 102.339 44.8245 102.737 43.5355C103.511 41.0042 104.413 37.594 104.413 37.1605C104.413 36.973 104.483 36.9026 104.659 36.9495C104.776 36.9964 105.561 37.2308 106.405 37.4651ZM85.323 42.5511C86.4363 42.9144 87.7488 43.4183 88.2293 43.6644C89.0965 44.098 89.1082 44.1097 88.8621 44.3792C88.4168 44.8714 83.5535 49.4065 83.4129 49.4534C83.3426 49.4769 83.284 48.7972 83.284 47.8011C83.284 46.0784 83.0848 42.9612 82.9324 42.2698C82.8152 41.7425 82.909 41.7542 85.323 42.5511ZM116.448 43.4534C115.382 45.223 113.612 47.7425 112.346 49.3362C111.046 50.9651 108.292 54.0237 108.128 54.0237C108.069 54.0237 107.671 53.5315 107.237 52.9222C105.667 50.6839 103.85 48.7503 102.257 47.6253C102.104 47.5198 102.011 47.4026 102.046 47.3675C102.081 47.3323 104.694 46.3714 107.846 45.223C114.221 42.9144 117.034 41.9769 117.21 42.094C117.233 42.1058 116.893 42.7151 116.448 43.4534ZM120.432 43.1487C124.839 46.2191 127.827 48.7034 128.905 50.1917C129.175 50.5667 129.374 50.8831 129.35 50.9065C129.327 50.93 127.909 51.0823 126.198 51.2581C119.366 51.9261 114.503 52.6175 111.925 53.2737C111.233 53.4495 110.659 53.5784 110.647 53.5667C110.636 53.555 111.093 52.9925 111.667 52.3011C114.643 48.7269 117.339 45.012 118.335 43.0784C118.604 42.5628 118.862 42.1526 118.909 42.1526C118.968 42.1526 119.647 42.598 120.432 43.1487ZM95.7762 46.9573C96.6199 47.4144 97.2644 47.8245 97.2293 47.8948C97.159 48.0237 89.741 52.0901 89.6707 52.0315C89.659 52.0198 90.034 50.8011 90.5262 49.3128C91.0183 47.8245 91.4871 46.2073 91.5808 45.7151L91.7449 44.8128L92.9988 45.4808C93.6902 45.844 94.9324 46.5003 95.7762 46.9573ZM89.5535 47.1917C88.8387 49.6761 87.3855 52.887 86.7176 53.4378C86.5652 53.5667 86.2605 53.3909 85.2879 52.594C84.5965 52.0433 83.8933 51.4925 83.7058 51.3636C83.5301 51.2347 83.3894 51.1058 83.4246 51.0706C83.9402 50.5667 89.8465 45.7972 89.8816 45.8675C89.8934 45.9144 89.7527 46.512 89.5535 47.1917ZM103.007 51.5159C104.12 52.2659 106.604 54.4808 106.475 54.6214C106.44 54.6565 103.921 55.4769 100.886 56.4378C97.8504 57.3987 94.4637 58.4886 93.3621 58.8519C92.2605 59.2269 91.3465 59.5081 91.3348 59.4964C91.323 59.4847 92.0965 58.6058 93.0457 57.5394C95.5301 54.762 98.0848 51.7972 98.9988 50.6253L99.784 49.6175L100.804 50.1683C101.354 50.473 102.35 51.0823 103.007 51.5159ZM97.2527 49.9222C97.1824 50.0159 96.5144 50.8597 95.7644 51.8089C95.0144 52.7581 93.2098 55.0667 91.7566 56.9417L89.1082 60.3519L89.0262 59.7776C88.8621 58.6644 88.2645 56.473 87.9246 55.7347L87.5848 54.9847L89.2723 54.1409C91.0066 53.2737 94.6395 51.305 96.3387 50.3089C97.3816 49.6995 97.452 49.6644 97.2527 49.9222ZM83.1902 54.0472C83.8816 54.3987 84.5262 54.8675 84.5262 55.0081C84.5262 55.2308 80.0379 58.6995 79.909 58.5706C79.8855 58.5355 80.284 57.7386 80.8113 56.7894C81.3387 55.8401 81.866 54.7737 81.9949 54.4105C82.1238 54.0472 82.3113 53.7542 82.4168 53.7542C82.5223 53.7425 82.8621 53.8831 83.1902 54.0472ZM87.0105 58.3128C87.3152 58.9222 87.6433 60.6214 87.4793 60.7737C87.409 60.8323 85.5574 61.7112 83.3543 62.7308C81.1512 63.7386 78.2801 65.098 76.9676 65.7542C75.6551 66.4105 74.659 66.8675 74.7645 66.7855C74.8582 66.7034 76.2996 65.4847 77.9754 64.1019C81.2098 61.4183 84.8894 58.2073 85.5574 57.4925L85.9676 57.0589L86.366 57.4339C86.577 57.6448 86.8699 58.0433 87.0105 58.3128ZM83.3894 58.2776C83.073 58.5706 81.3387 60.0706 79.5574 61.6175C77.7762 63.1644 75.6316 65.0276 74.7996 65.7542C73.1121 67.2191 73.1121 67.2191 75.2684 64.4183C76.9324 62.2503 77.7996 61.4417 80.1902 59.8362C81.3504 59.0628 83.659 57.7503 83.8933 57.7503C83.9285 57.7503 83.7058 57.9847 83.3894 58.2776ZM100.112 59.7542C100.194 60.2112 100.311 61.6292 100.358 62.8948L100.44 65.2034L99.9012 64.9573C98.0496 64.1019 92.8465 61.1722 93.0457 61.0901C94.1824 60.6331 99.7957 58.7698 99.866 58.8401C99.9129 58.887 100.03 59.2972 100.112 59.7542ZM95.7059 63.8909C97.8738 65.1683 99.6668 66.223 99.6902 66.2464C99.7137 66.2698 99.4324 66.5042 99.0808 66.762C98.3894 67.2659 91.0535 71.0628 90.948 70.9691C90.9129 70.9339 91.0183 70.3011 91.1707 69.5745C91.4754 68.098 91.7332 63.6917 91.616 62.2972C91.5691 61.805 91.5926 61.4534 91.6629 61.5003C91.7098 61.5355 93.5379 62.6136 95.7059 63.8909ZM89.7176 62.9534C89.8816 64.3245 89.6824 67.0784 89.3074 68.5198C88.8738 70.2073 88.616 70.9105 88.4285 70.9691C88.1707 71.0511 86.5652 69.598 85.5926 68.3792C84.6082 67.1487 83.3074 64.8401 83.5066 64.6526C83.6238 64.5355 89.3426 62.18 89.5301 62.18C89.5769 62.1683 89.659 62.5198 89.7176 62.9534ZM82.698 66.3987C83.3074 67.6526 84.6902 69.4573 86.202 70.9925C87.1746 71.9769 87.4207 72.2933 87.2683 72.3987C86.5887 72.8558 83.5418 74.2855 81.6199 75.0355C79.2879 75.9495 76.2527 77.0042 76.1824 76.9105C76.159 76.8753 76.8504 75.6097 77.7293 74.098C79.6277 70.805 82.0301 66.1292 82.0301 65.7425C82.0418 65.262 82.241 65.4612 82.698 66.3987ZM79.1004 66.4808C79.0652 66.5745 78.7723 67.3011 78.4559 68.098C77.1082 71.5198 74.4832 76.1722 73.8973 76.1722C73.4402 76.1722 72.7723 73.4651 72.5848 70.8636L72.491 69.5511L75.702 67.9339C77.4715 67.0433 78.9715 66.3167 79.0418 66.3167C79.1121 66.305 79.1355 66.387 79.1004 66.4808ZM100.534 69.6448C100.546 71.6136 99.7254 76.3831 99.2801 76.8636C99.0926 77.0628 97.0652 76.3128 95.2254 75.3636C93.5848 74.5198 90.8777 72.8441 90.8777 72.6683C90.8777 72.6214 91.2879 72.4105 91.8035 72.1995C92.7762 71.7894 97.3113 69.3636 99.2332 68.2269L100.335 67.5706L100.429 68.0745C100.475 68.3558 100.522 69.0706 100.534 69.6448ZM70.2879 71.9183C70.4754 73.4769 70.9559 75.387 71.5535 76.8987C71.7996 77.5198 71.9754 78.0589 71.9402 78.0823C71.7059 78.2933 62.0613 80.9534 60.784 81.1526L60.1746 81.2464L60.2684 80.7776C60.3973 80.1097 61.3348 78.2112 62.0262 77.18C62.8934 75.9026 65.0262 73.7581 66.4324 72.762C67.4871 72.0237 70.0184 70.5355 70.0887 70.6292C70.1355 70.6409 70.2059 71.2151 70.2879 71.9183ZM92.1668 75.2112C95.1433 76.6409 96.2683 77.1331 97.698 77.6253L98.7879 78.0003L98.0965 78.3519C94.1941 80.3323 87.2801 83.1448 85.4988 83.4964C85.1004 83.5784 85.0418 83.555 85.1238 83.3558C85.4285 82.5589 89.5535 74.0394 89.6355 74.0394C89.6824 74.0394 90.8308 74.5667 92.1668 75.2112ZM86.9285 74.8948C86.7176 75.9026 85.5808 79.1487 84.9246 80.6253C84.3504 81.9144 83.0262 84.4105 82.7918 84.6448C82.6863 84.7503 80.3309 83.4261 79.2176 82.6292C77.9637 81.7386 75.2215 79.0901 75.3035 78.8441C75.3387 78.7503 77.0027 78.1058 79.0183 77.4144C83.2605 75.9495 85.6277 75.0706 86.3191 74.7073C86.9754 74.3558 87.034 74.3792 86.9285 74.8948ZM98.7879 79.3714C98.7527 79.6644 98.5066 80.9417 98.2488 82.2425C97.4402 86.2972 96.4559 89.0745 95.8348 89.0745C94.9676 89.0745 89.0613 87.6448 87.1512 86.9651C85.8504 86.5081 84.7371 85.9808 84.3621 85.6644C84.1277 85.4651 84.2566 85.3948 85.9441 84.7034C91.4051 82.4769 97.7098 79.6292 98.3895 79.0901C98.7996 78.762 98.8582 78.8089 98.7879 79.3714ZM71.1316 80.6136C70.5105 81.7269 69.2449 83.555 66.8191 86.8245L64.7566 89.6136L64.1355 89.1683C63.2684 88.5472 61.8855 87.0472 61.3113 86.098C60.6902 85.0784 60.2684 83.8128 60.2215 82.8519L60.1863 82.1019L61.2059 81.9964C62.5887 81.8558 66.4676 81.0589 69.2215 80.3323C70.4754 80.0042 71.5184 79.7581 71.5418 79.7698C71.5535 79.805 71.3777 80.18 71.1316 80.6136ZM77.1434 83.4847C77.8348 83.9769 78.784 84.6097 79.2644 84.8909L80.1433 85.4065L79.7449 85.5706C79.5223 85.6644 76.3113 86.8362 72.5965 88.1722C66.2566 90.4573 65.8465 90.598 65.6707 90.3636C65.5652 90.223 65.4949 90.0823 65.5066 90.0355C65.5184 89.9886 67.2293 87.7737 69.3152 85.1136L73.1004 80.2737L74.4949 81.4339C75.2801 82.0784 76.452 82.9925 77.1434 83.4847ZM78.702 90.762C77.3191 92.8362 76.1473 94.5823 76.1004 94.6292C75.9949 94.7698 73.7801 94.2542 72.1277 93.6917C70.3934 93.1058 68.2488 92.0276 67.4051 91.3011L66.7957 90.7737L68.1668 90.3987C73.7566 88.8753 81.1512 86.9183 81.1863 86.9417C81.2098 86.9651 80.0848 88.6878 78.702 90.762ZM85.3465 87.6214C88.3113 88.6409 91.0066 89.2151 94.5105 89.5901L95.4715 89.6956L92.8582 90.6331C86.3426 92.9886 81.0574 94.6409 78.409 95.1565C77.659 95.2972 76.9793 95.4261 76.909 95.4261C76.8387 95.4261 77.366 94.6995 78.0926 93.8089C80.0848 91.3831 82.241 88.6175 82.8152 87.762C83.0965 87.3519 83.3777 87.0003 83.4363 87.0003C83.5066 87.012 84.3621 87.2815 85.3465 87.6214ZM95.0613 93.1058C93.9363 96.0003 93.116 97.7698 92.8348 97.8753C92.284 98.0862 84.5848 96.9612 82.2293 96.3167C80.6707 95.8948 79.6746 95.4847 79.9676 95.3792C80.0848 95.344 81.198 95.0745 82.4519 94.7933C86.5183 93.8792 92.7293 91.9925 95.3074 90.8909C95.6355 90.7503 95.9285 90.6448 95.952 90.6683C95.9754 90.6917 95.5769 91.7815 95.0613 93.1058ZM49.534 95.555C48.9832 95.7894 48.7254 96.2464 48.6668 97.1019C48.6082 97.8987 48.6082 97.9105 48.2098 97.9105C47.8113 97.9105 47.7996 97.9339 47.8465 98.4964C47.8816 99.0237 47.9285 99.0823 48.2684 99.1292L48.6434 99.1761V103.465L49.2879 103.407L49.9441 103.36L50.0379 99.1409H51.9598V100.688C51.9598 102.61 52.159 103.114 52.991 103.395C53.366 103.524 53.7176 103.547 54.0926 103.465C54.6199 103.36 54.6434 103.325 54.6902 102.762L54.7371 102.164L54.2801 102.246C53.4832 102.387 53.4363 102.293 53.4598 100.348L53.4715 99.1526H53.8699C54.5613 99.1526 54.7137 99.0237 54.7137 98.4495V97.9105H53.4715V97.3948C53.4715 96.6331 53.3426 96.5042 52.6277 96.5511L52.0184 96.5862L51.9246 97.8987H50.0145V97.43C50.0145 96.7855 50.3543 96.469 50.9402 96.5862C51.3855 96.6683 51.3973 96.6683 51.3973 96.2112C51.3973 95.9651 51.3152 95.6722 51.2332 95.5784C51.0457 95.4144 49.9441 95.3909 49.534 95.555ZM18.9949 95.7776C18.3973 96.1995 18.6902 97.0784 19.4402 97.0784C20.2137 97.0784 20.3543 96.973 20.3543 96.3753C20.3426 95.6136 19.6629 95.3089 18.9949 95.7776ZM8.84648 96.1526C8.63554 96.305 8.6121 96.6565 8.64726 99.844L8.68242 103.36L9.99492 103.453V100.395C9.99492 98.7073 10.0301 97.3597 10.0652 97.3948C10.1121 97.43 10.5105 98.5433 10.9676 99.8675C11.4246 101.192 11.8934 102.539 12.0105 102.867L12.2332 103.465L12.9246 103.407L13.616 103.36L15.7254 97.5003L15.7957 100.43C15.8426 102.047 15.8894 103.383 15.9012 103.407C15.9129 103.43 16.2293 103.43 16.5809 103.407L17.2371 103.36L17.2723 99.8558C17.2957 97.3831 17.2605 96.2933 17.1434 96.1526C16.8973 95.848 15.3387 95.9065 15.0574 96.223C14.9402 96.3636 14.448 97.5003 13.9793 98.7425C13.5105 99.9847 13.0887 101.051 13.0418 101.11C12.9949 101.168 12.5848 100.172 12.1277 98.9066C11.6707 97.6175 11.1668 96.469 10.991 96.2933C10.7449 96.0472 10.534 95.9769 9.87773 95.9769C9.44414 95.9769 8.97539 96.0589 8.84648 96.1526ZM23.0496 97.9105C22.0418 98.2386 21.4441 99.2815 21.4441 100.746C21.4441 102.387 22.0652 103.278 23.3777 103.5C23.9754 103.606 24.9949 103.371 25.3465 103.055C25.5809 102.844 25.6863 102.059 25.4988 101.883C25.4519 101.836 25.1941 101.918 24.9246 102.071C23.9285 102.61 23.1902 102.305 22.9559 101.262C22.8035 100.571 22.9676 99.68 23.3309 99.2933C23.6238 98.9769 24.3504 98.9534 24.9129 99.2464C25.4402 99.5159 25.5926 99.4222 25.5926 98.8128C25.5926 98.473 25.5105 98.2855 25.2644 98.1331C24.8426 97.8401 23.6004 97.7347 23.0496 97.9105ZM28.4285 98.1917C27.948 98.6136 27.948 98.6136 27.9012 98.2972C27.866 98.0276 27.7723 97.969 27.2684 97.9339L26.6824 97.887V103.418H28.0652V101.707C28.0652 99.9964 28.0652 99.9964 28.4754 99.5511C28.8152 99.1878 28.9676 99.1175 29.3777 99.1644C29.8934 99.223 29.9988 99.1058 29.9988 98.4612C29.9988 97.6644 29.2019 97.5237 28.4285 98.1917ZM32.2488 97.9339C31.1355 98.262 30.4559 99.5628 30.5965 101.098C30.7254 102.516 31.4519 103.325 32.7644 103.512C35.0848 103.828 36.5965 101.93 35.9402 99.5394C35.5418 98.1331 33.948 97.43 32.2488 97.9339ZM33.866 99.012C34.5926 99.3987 34.7801 101.086 34.1824 101.883C33.8074 102.375 32.9754 102.469 32.4715 102.071C32.1668 101.825 32.1434 101.707 32.1434 100.676C32.1434 99.6097 32.1668 99.5276 32.5301 99.2112C32.9285 98.8597 33.4441 98.7894 33.866 99.012ZM37.9441 97.969C37.241 98.2737 36.9832 98.6839 36.9832 99.4456C36.9832 100.266 37.241 100.571 38.4715 101.157C39.1746 101.496 39.3269 101.625 39.3269 101.918C39.3269 102.164 39.2215 102.305 38.9402 102.399C38.5887 102.516 38.2605 102.457 37.1473 102.106C36.9363 102.035 36.9012 102.094 36.9363 102.563C36.9715 103.008 37.0535 103.137 37.3934 103.301C37.9676 103.582 39.3504 103.559 39.9246 103.254C40.7566 102.809 41.0144 101.461 40.4051 100.782C40.2644 100.629 39.7605 100.313 39.2566 100.078C38.3426 99.6448 38.1199 99.3284 38.4363 98.9534C38.6473 98.7073 39.2684 98.7073 39.8895 98.9651C40.2996 99.1409 40.3816 99.1409 40.452 98.9769C40.5926 98.6019 40.4285 98.1565 40.0887 97.9808C39.6316 97.7347 38.4598 97.7347 37.9441 97.969ZM43.534 97.8753C42.3152 98.3089 41.7645 99.0472 41.6473 100.36C41.5066 101.977 42.0926 103.008 43.3582 103.383C45.4793 104.004 47.1316 102.774 47.1199 100.582C47.1082 99.2581 46.5105 98.2855 45.4793 97.9339C44.9988 97.7698 43.909 97.7347 43.534 97.8753ZM45.1395 99.2112C45.5027 99.5159 45.5262 99.6097 45.5262 100.582C45.5262 101.496 45.491 101.66 45.1863 101.977C44.7527 102.434 43.9324 102.469 43.5223 102.059C43.1707 101.707 43.0652 101.25 43.1473 100.301C43.1941 99.68 43.2879 99.4691 43.5809 99.1995C44.073 98.7776 44.6473 98.7894 45.1395 99.2112ZM18.8894 103.371H20.2723V97.9808L19.5457 97.9456L18.8191 97.8987L18.8894 103.371ZM12.2566 106.817C10.4871 107.203 9.15117 108.176 8.44804 109.617C8.01445 110.496 7.99101 110.625 7.99101 112.055C7.99101 113.438 8.02617 113.649 8.36601 114.352C9.10429 115.864 10.4637 116.93 13.2996 118.219C16.3934 119.625 17.2371 120.492 17.2371 122.285C17.2371 123.914 16.4754 124.887 14.7996 125.403C13.1355 125.918 11.4715 125.672 9.31523 124.594C8.60039 124.231 7.95585 123.914 7.90898 123.891C7.85039 123.867 7.72148 123.95 7.59257 124.067C7.33476 124.336 7.28789 125.672 7.53398 126.117C8.0496 127.09 10.7566 127.992 13.1121 127.992C17.5418 127.992 20.4012 125.356 20.1668 121.477C20.1199 120.633 20.0144 120.223 19.6629 119.52C18.9715 118.125 18.0809 117.399 15.3738 116.075C14.1199 115.465 12.7488 114.727 12.3152 114.434C10.6043 113.285 10.2059 111.328 11.4129 109.969C12.0809 109.207 12.7605 108.961 14.1551 108.95C15.4793 108.95 16.0184 109.09 17.5418 109.864C18.8543 110.532 18.9715 110.473 18.9715 109.172C18.9715 108 18.9012 107.895 17.7059 107.344C16.1238 106.653 14.0027 106.442 12.2566 106.817ZM30.7254 106.735C28.1121 107.157 26.0965 108.422 24.7488 110.496C24.0691 111.551 23.6941 112.535 23.3426 114.2C22.9559 116.016 23.0496 120.059 23.5066 121.723C24.6316 125.813 27.1512 127.782 31.4637 127.969C33.7371 128.063 34.616 127.899 36.8426 126.95C36.9246 126.914 37.2996 127.149 37.6746 127.465C39.1043 128.707 42.2449 130.489 43.3465 130.7C44.0262 130.828 44.2137 130.606 44.2137 129.645C44.2137 129.2 44.1785 128.742 44.1316 128.614C44.0848 128.485 43.4285 128.075 42.6551 127.688C41.4715 127.102 39.1043 125.578 39.1043 125.403C39.1043 125.367 39.3269 125.063 39.5848 124.711C40.698 123.258 41.366 121.231 41.6004 118.606C41.7762 116.602 41.6121 114.457 41.1551 112.793C40.323 109.782 38.2957 107.707 35.4363 106.934C34.4871 106.7 31.7684 106.571 30.7254 106.735ZM34.8738 109.371C36.5144 109.981 37.6043 111.223 38.2371 113.157C38.5535 114.129 38.6121 114.575 38.6707 116.637C38.7527 119.403 38.5418 120.739 37.8152 122.285C36.6551 124.77 34.1121 126.012 31.1473 125.555C27.4676 124.992 25.8504 122.215 26.0379 116.766C26.1434 113.637 26.7059 111.996 28.159 110.614C29.0144 109.793 29.6355 109.43 30.6316 109.184C31.7801 108.879 33.8191 108.973 34.8738 109.371ZM68.073 106.828C66.3738 107.239 64.9324 108.293 64.3113 109.559C63.6082 111.012 63.5848 113.063 64.2527 114.387C65.0379 115.946 66.0926 116.754 69.3738 118.313C71.8582 119.496 72.6902 120.188 73.0301 121.348C73.4285 122.719 72.9129 124.149 71.7645 124.899C69.9715 126.059 67.4168 125.871 64.6863 124.383C63.4559 123.715 63.2801 123.785 63.2801 124.969C63.2801 126.071 63.4324 126.399 64.1824 126.832C66.491 128.192 70.3348 128.367 72.7254 127.242C75.6082 125.883 76.909 122.309 75.5496 119.473C75.3738 119.11 74.8816 118.477 74.4363 118.043C73.7566 117.375 73.2176 117.047 70.9441 115.934C67.1707 114.082 66.4207 113.285 66.6434 111.399C66.7605 110.461 67.2527 109.77 68.1199 109.336C68.7176 109.032 69.0457 108.973 69.9598 108.973C71.3191 108.973 71.8699 109.114 73.241 109.817C74.4129 110.414 74.659 110.461 74.7879 110.133C74.9519 109.723 74.8699 108.352 74.6707 108.059C74.4012 107.684 73.0301 107.075 71.8699 106.828C70.7098 106.582 69.116 106.571 68.073 106.828ZM46.5926 107.051C46.4637 107.18 46.4285 109.606 46.4285 117.129V127.043L47.1082 127.723H52.0066C55.7566 127.723 56.9285 127.676 57.0457 127.547C57.2566 127.278 57.3504 126.469 57.2332 125.93L57.1277 125.45L49.2762 125.309L49.241 116.203C49.2176 109.137 49.1707 107.075 49.0418 106.992C48.7488 106.828 46.7801 106.864 46.5926 107.051ZM83.4246 112.231C82.7566 112.336 81.4207 112.864 80.8699 113.239C79.5457 114.141 78.6082 115.582 78.0809 117.516C77.7527 118.746 77.7527 121.782 78.0809 123.035C78.7605 125.602 80.2605 127.16 82.6512 127.793C83.6941 128.063 86.3308 128.063 87.6199 127.793C88.8387 127.535 90.1043 127.067 90.3387 126.797C90.5613 126.539 90.5496 125.145 90.3269 124.922C90.2098 124.805 89.8465 124.887 88.8738 125.215C85.1355 126.481 82.2527 125.93 81.1395 123.739C80.8113 123.094 80.5066 121.805 80.5066 121.078V120.692H85.2527C88.2527 120.692 90.1512 120.633 90.4207 120.539C91.0301 120.328 91.1941 119.801 91.0887 118.442C90.8777 115.746 89.9754 114.059 88.2058 112.992C87.0808 112.313 84.9949 111.973 83.4246 112.231ZM85.9559 114.399C87.3621 114.821 88.2293 116.016 88.3582 117.668L88.4285 118.617H80.4832L80.577 118.043C80.823 116.614 81.4207 115.547 82.3465 114.914C83.3895 114.2 84.6902 114.012 85.9559 114.399ZM99.5379 112.266C98.8816 112.477 97.9324 113.239 97.2527 114.094L96.5965 114.938L96.4559 112.477L95.6355 112.43C95.1785 112.407 94.6746 112.418 94.4988 112.465L94.1824 112.535V120.047C94.1824 126.774 94.2059 127.559 94.4051 127.641C94.6863 127.746 96.3152 127.746 96.5848 127.641C96.784 127.571 96.8074 126.996 96.8074 122.66V117.762L97.4168 116.907C98.2488 115.735 99.3269 114.785 99.948 114.668C100.276 114.61 100.792 114.657 101.401 114.809C101.999 114.961 102.397 114.996 102.479 114.914C102.55 114.844 102.596 114.282 102.573 113.696C102.538 112.641 102.514 112.594 102.128 112.418C101.647 112.184 100.065 112.09 99.5379 112.266ZM123.304 112.278C122.214 112.465 120.667 113.262 119.87 114.059C118.358 115.571 117.725 117.657 117.831 120.75C117.925 123.539 118.44 124.922 119.905 126.293C121.3 127.617 122.776 128.051 125.448 127.969C127.405 127.899 129.163 127.512 129.971 126.973C130.37 126.703 130.417 126.598 130.452 125.918C130.475 125.508 130.429 125.075 130.358 124.957C130.218 124.735 130.335 124.711 128.003 125.45C127.054 125.742 126.55 125.813 125.378 125.825C123.057 125.836 121.862 125.215 121.077 123.621C120.749 122.953 120.632 122.485 120.573 121.711L120.503 120.692L125.471 120.657C131.436 120.61 131.038 120.739 131.026 118.899C131.014 115.664 129.62 113.414 127.1 112.535C126.186 112.231 124.346 112.102 123.304 112.278ZM125.905 114.41C127.276 114.821 128.179 116.039 128.366 117.762L128.46 118.617H120.514L120.596 117.926C120.796 116.239 121.956 114.785 123.456 114.328C124.03 114.153 125.155 114.2 125.905 114.41ZM139.593 112.254C138.702 112.547 137.471 113.578 136.792 114.598C136.569 114.938 136.557 114.914 136.557 113.836C136.557 113.157 136.499 112.664 136.393 112.571C136.171 112.348 134.46 112.348 134.237 112.571C134.003 112.805 134.003 127.325 134.237 127.559C134.46 127.782 136.44 127.782 136.663 127.559C136.78 127.442 136.827 126.129 136.827 122.555V117.715L137.343 116.953C138.104 115.817 139.065 114.926 139.733 114.727C140.307 114.551 140.53 114.575 142.065 114.973C142.499 115.09 142.628 114.844 142.628 113.918C142.628 112.887 142.534 112.606 142.1 112.407C141.655 112.207 140.05 112.102 139.593 112.254ZM102.889 112.617C102.749 112.793 103.171 114.082 105.304 120.035C106.721 123.996 107.999 127.36 108.139 127.512C108.667 128.051 111.28 127.922 111.514 127.348C111.69 126.891 116.53 113.45 116.624 113.133C116.788 112.582 116.495 112.418 115.311 112.418C114.62 112.418 114.186 112.477 114.104 112.594C114.034 112.688 113.05 115.489 111.925 118.817C110.8 122.145 109.839 124.817 109.78 124.746C109.721 124.688 108.761 121.969 107.647 118.7C106.534 115.43 105.55 112.688 105.468 112.582C105.257 112.313 103.1 112.348 102.889 112.617Z" fill="black"/>
</svg>
