<svg width="150" height="150" viewBox="0 0 150 150" fill="none" xmlns="http://www.w3.org/2000/svg">
<path d="M1.75781 148.242H148.242V1.75781H1.75781V148.242ZM119.801 69.1406C123.309 69.9548 126.498 71.7898 128.965 74.4141C130.323 75.8279 131.503 77.402 132.48 79.1016C132.48 79.2891 126.152 83.5664 122.297 85.957C122.156 86.0508 121.594 85.4414 120.973 84.5156C120.269 83.3012 119.269 82.2848 118.066 81.5614C116.863 80.8381 115.496 80.4312 114.094 80.3789C109.652 80.0742 106.793 82.4062 106.816 86.2383C106.78 87.1924 106.998 88.139 107.449 88.9805C108.422 91.0078 110.238 92.2148 115.934 94.6758C126.422 99.1875 130.91 102.164 133.699 106.395C136.816 111.082 137.508 118.652 135.398 124.254C133.055 130.348 127.312 134.484 119.191 135.855C115.482 136.28 111.735 136.241 108.035 135.738C102.389 134.822 97.1811 132.134 93.1641 128.062C91.8164 126.574 89.1914 122.695 89.3555 122.414C89.7833 122.096 90.2337 121.811 90.7031 121.559L96.0938 118.465L100.301 116.027L101.18 117.328C102.663 119.45 104.551 121.258 106.734 122.648C111.422 125.109 117.82 124.77 120.984 121.922C122.047 120.878 122.709 119.495 122.857 118.014C123.005 116.532 122.628 115.045 121.793 113.812C120.621 112.184 118.277 110.812 111.727 107.953C104.168 104.695 100.91 102.68 97.9336 99.4688C96.0754 97.3499 94.7034 94.85 93.9141 92.1445C93.3252 89.0536 93.2382 85.8881 93.6562 82.7695C95.2148 75.4688 100.688 70.3711 108.68 68.8594C112.381 68.4014 116.13 68.5041 119.801 69.1641V69.1406ZM85.418 75.2812V81.2812H66.3984V135.457H52.9102V81.2695H33.8438V75.4102C33.7926 73.3931 33.8473 71.3746 34.0078 69.3633C34.0781 69.2695 45.7266 69.2227 59.7891 69.2461H85.3477L85.418 75.2812Z" fill="#007ACC"/>
</svg>
