<svg width="150" height="150" viewBox="0 0 150 150" fill="none" xmlns="http://www.w3.org/2000/svg">
<path d="M3.49078 53.1293C3.49078 53.1293 -0.0564852 50.5617 4.20562 47.1375L14.1291 38.2382C14.1291 38.2382 16.972 35.2394 19.9755 37.8539L111.587 107.379V140.719C111.587 140.719 111.541 145.955 104.84 145.378L3.49078 53.1293Z" fill="#2489CA"/>
<path d="M27.1076 74.6168L3.49078 96.1359C3.49078 96.1359 1.065 97.9441 3.49078 101.181L14.4548 111.173C14.4548 111.173 17.0588 113.98 20.9095 110.789L45.9396 91.7601L27.1076 74.6168Z" fill="#1070B3"/>
<path d="M68.5627 74.7949L111.867 41.6484L111.587 8.48786C111.587 8.48786 109.738 1.25036 103.568 5.02028L45.9396 57.5918L68.5627 74.7949Z" fill="#0877B9"/>
<path d="M104.839 145.419C107.353 148.001 110.402 147.153 110.402 147.153L144.149 130.487C148.469 127.534 147.865 123.872 147.865 123.872V24.3269C147.865 19.95 143.397 18.4394 143.397 18.4394L114.146 4.30544C107.756 0.345672 103.568 5.02028 103.568 5.02028C103.568 5.02028 108.95 1.13317 111.587 8.48903V140.111C111.587 141.016 111.395 141.903 111.01 142.705C110.242 144.266 108.566 145.717 104.56 145.109L104.839 145.419Z" fill="#3C99D4"/>
</svg>
