<svg width="25" height="35" viewBox="0 0 25 35" fill="none" xmlns="http://www.w3.org/2000/svg">
<path d="M16.5 12.5C16.5 14.7091 14.7091 16.5 12.5 16.5C10.2909 16.5 8.5 14.7091 8.5 12.5C8.5 10.2909 10.2909 8.5 12.5 8.5C14.7091 8.5 16.5 10.2909 16.5 12.5ZM12.5 18.5C15.8137 18.5 18.5 15.8137 18.5 12.5C18.5 9.18629 15.8137 6.5 12.5 6.5C9.18629 6.5 6.5 9.18629 6.5 12.5C6.5 15.8137 9.18629 18.5 12.5 18.5ZM24 12.5C24 15.762 22.6544 21.2386 20.4356 25.9098C19.3302 28.2368 18.0375 30.2999 16.6415 31.7655C15.2344 33.2427 13.8347 34 12.5 34C11.1653 34 9.76559 33.2427 8.35853 31.7655C6.96249 30.2999 5.66982 28.2368 4.56444 25.9098C2.34556 21.2386 1 15.762 1 12.5C1 6.14873 6.14873 1 12.5 1C18.8513 1 24 6.14873 24 12.5Z" stroke="#2DC3F6" stroke-width="2"/>
</svg>
