<svg width="120" height="32" viewBox="0 0 120 32" fill="none" xmlns="http://www.w3.org/2000/svg">
<path d="M0 13.3974V11.8676H1.73046V1.78477H0V0.254966H4.56L11.5988 10.245V1.78477H9.82154V0.254966H15.0831V1.78477H13.376V13.3974H10.9206L3.48431 2.75828V11.8676H5.26154V13.3974H0Z" fill="#D9D9D9"/>
<path d="M16.9029 13.3974V11.8676H18.5866V1.78477H16.9029V0.254966H22.7724V1.78477H21.0653V11.8676H22.7724V13.3974H16.9029Z" fill="#D9D9D9"/>
<path d="M32.1166 13.6523C31.0565 13.6523 30.0899 13.4901 29.2169 13.1656C28.3594 12.8256 27.6111 12.362 26.972 11.7748C26.3328 11.1722 25.8417 10.4536 25.4987 9.61921C25.1713 8.78477 25.0077 7.84989 25.0077 6.81457C25.0077 5.48565 25.2961 4.31126 25.8729 3.29139C26.4653 2.25607 27.2838 1.45254 28.3283 0.880794C29.3728 0.30905 30.5966 0.0231783 31.9997 0.0231783C32.8883 0.0231783 33.6756 0.154525 34.3615 0.417218C35.063 0.679911 35.6399 1.05077 36.092 1.5298C36.5597 2.00883 36.8948 2.56512 37.0975 3.19868L36.4661 3.01324V0.254966H38.1966V4.42715L36.6766 4.45033C36.2089 3.50773 35.6165 2.82781 34.8993 2.41059C34.1978 1.97792 33.3482 1.76159 32.3504 1.76159C31.3527 1.76159 30.4874 1.98565 29.7547 2.43377C29.0376 2.86645 28.4842 3.46137 28.0944 4.21854C27.7047 4.97572 27.5098 5.83333 27.5098 6.79139C27.5098 7.56402 27.6267 8.26711 27.8606 8.90066C28.0944 9.51876 28.4218 10.0519 28.8427 10.5C29.2792 10.9481 29.7859 11.2958 30.3627 11.543C30.9395 11.7903 31.5709 11.9139 32.2569 11.9139C32.9117 11.9139 33.5197 11.8135 34.0809 11.6126C34.6577 11.3962 35.1644 11.064 35.6009 10.6159C36.053 10.1523 36.396 9.55739 36.6298 8.83113L38.5006 9.61921C38.1732 10.5618 37.6977 11.3344 37.0741 11.9371C36.4505 12.5243 35.71 12.957 34.8526 13.2351C34.0107 13.4978 33.0987 13.6369 32.1166 13.6523Z" fill="#D9D9D9"/>
<path d="M48.1517 13.6523C47.0448 13.6523 46.0392 13.4823 45.135 13.1424C44.2464 12.787 43.4825 12.3002 42.8434 11.6821C42.2198 11.0486 41.7365 10.3223 41.3935 9.50331C41.0505 8.68433 40.879 7.80353 40.879 6.86093C40.879 5.91832 41.0505 5.03753 41.3935 4.21854C41.7365 3.3841 42.2198 2.65784 42.8434 2.03973C43.4825 1.40618 44.2464 0.9117 45.135 0.556291C46.0392 0.200883 47.0448 0.0231783 48.1517 0.0231783C49.2429 0.0231783 50.2329 0.200883 51.1215 0.556291C52.0257 0.9117 52.7974 1.40618 53.4366 2.03973C54.0758 2.65784 54.5668 3.3841 54.9098 4.21854C55.2528 5.03753 55.4243 5.91832 55.4243 6.86093C55.4243 7.80353 55.2528 8.68433 54.9098 9.50331C54.5668 10.3223 54.0758 11.0486 53.4366 11.6821C52.7974 12.3002 52.0335 12.787 51.1449 13.1424C50.2563 13.4823 49.2585 13.6523 48.1517 13.6523ZM48.1517 11.9139C48.8688 11.9139 49.5158 11.7826 50.0926 11.5199C50.685 11.2572 51.1839 10.894 51.5892 10.4305C51.9945 9.96689 52.2985 9.43377 52.5012 8.83113C52.7195 8.21302 52.8286 7.54856 52.8286 6.83775C52.8286 6.12693 52.7195 5.46247 52.5012 4.84437C52.2985 4.22627 51.9945 3.68543 51.5892 3.22185C51.1839 2.75828 50.685 2.39514 50.0926 2.13245C49.5158 1.86976 48.8688 1.73841 48.1517 1.73841C47.4034 1.73841 46.7408 1.86976 46.164 2.13245C45.6027 2.39514 45.1195 2.766 44.7141 3.24503C44.3088 3.70861 44.0048 4.24945 43.8021 4.86755C43.5995 5.48565 43.4981 6.15011 43.4981 6.86093C43.4981 7.57174 43.5995 8.2362 43.8021 8.85431C44.0048 9.45695 44.3088 9.99007 44.7141 10.4536C45.1195 10.9172 45.6027 11.2804 46.164 11.543C46.7408 11.7903 47.4034 11.9139 48.1517 11.9139Z" fill="#D9D9D9"/>
<path d="M57.4556 13.3974V11.8676H59.1627V1.73841H57.4556V0.254966H63.3252V1.73841H61.6181V11.8676H66.6224V7.97351H68.4464V13.3974H57.4556Z" fill="#D9D9D9"/>
<path d="M69.665 13.3974V11.8676H71.2785L74.9499 1.78477H73.5234V0.254966H80.7259V1.78477H79.2526L83.041 11.8676H84.561V13.3974H78.785V11.8676H80.4686L79.2994 8.43709H74.6926L73.5234 11.8676H75.1603V13.3974H69.665ZM75.137 6.95364H78.8317L77.0779 1.80795H76.961L75.137 6.95364Z" fill="#D9D9D9"/>
<path d="M92.5452 13.6291C91.906 13.6291 91.298 13.5364 90.7212 13.351C90.1599 13.1501 89.6611 12.872 89.2245 12.5166C88.788 12.1457 88.4528 11.7207 88.219 11.2417H88.5932V13.3974H86.7691V8.94702H88.4295C88.5386 9.54967 88.7569 10.0828 89.0842 10.5464C89.4272 11.0099 89.8715 11.3808 90.4172 11.6589C90.9628 11.9216 91.5942 12.053 92.3113 12.053C93.0284 12.053 93.5897 11.883 93.995 11.543C94.4159 11.2031 94.6264 10.7163 94.6264 10.0828C94.6264 9.57285 94.5328 9.17881 94.3458 8.90066C94.1587 8.60706 93.8547 8.37528 93.4338 8.2053C93.0128 8.03532 92.4438 7.89625 91.7267 7.78808L90.9082 7.62583C89.5987 7.39404 88.562 6.96137 87.7981 6.32782C87.0498 5.69426 86.6756 4.81347 86.6756 3.68543C86.6756 2.9128 86.8471 2.25607 87.1901 1.71523C87.5486 1.15894 88.0475 0.733995 88.6867 0.440397C89.3259 0.146799 90.0742 0 90.9316 0C91.8826 0 92.7166 0.200883 93.4338 0.602648C94.1509 0.988962 94.6654 1.5298 94.9772 2.22516H94.4861V0.254966H96.2399V4.00993H94.6264C94.5328 3.65452 94.3692 3.29139 94.1353 2.92053C93.9171 2.53422 93.5819 2.21744 93.1298 1.9702C92.6777 1.7075 92.0541 1.57616 91.259 1.57616C90.5419 1.57616 89.9806 1.74614 89.5753 2.08609C89.1856 2.42605 88.9907 2.86645 88.9907 3.40728C88.9907 4.00993 89.2167 4.47351 89.6688 4.79801C90.1365 5.12252 90.8225 5.36976 91.7267 5.53973L92.3347 5.65563C93.3636 5.82561 94.2133 6.06512 94.8836 6.37417C95.554 6.68322 96.0528 7.10817 96.3802 7.64901C96.7076 8.17439 96.8713 8.8543 96.8713 9.68874C96.8713 10.4305 96.6998 11.0949 96.3568 11.6821C96.0139 12.2693 95.5228 12.7406 94.8836 13.096C94.2444 13.4514 93.4649 13.6291 92.5452 13.6291Z" fill="#D9D9D9"/>
<path d="M29.2341 21.6755V21.2384H29.6951L30.7441 18.3576H30.3365V17.9205H32.3944V18.3576H31.9734L33.0558 21.2384H33.4901V21.6755H31.8398V21.2384H32.3209L31.9868 20.2583H30.6706L30.3365 21.2384H30.8042V21.6755H29.2341ZM30.7975 19.8344H31.8532L31.3521 18.3642H31.3187L30.7975 19.8344Z" fill="#D9D9D9"/>
<path d="M36.072 21.7417C35.6399 21.7417 35.2658 21.66 34.9495 21.4967C34.6377 21.3289 34.3972 21.0993 34.2279 20.8079C34.0587 20.5121 33.974 20.1744 33.974 19.7947C33.974 19.4062 34.0609 19.0684 34.2346 18.7815C34.4083 18.4901 34.6488 18.2627 34.9562 18.0993C35.268 17.936 35.6243 17.8543 36.0252 17.8543C36.4127 17.8543 36.7312 17.936 36.9806 18.0993C37.2345 18.2583 37.4194 18.468 37.5352 18.7285L37.3147 18.6821V17.9205H37.8358V19.1325H37.3815C37.2612 18.8764 37.0942 18.6821 36.8804 18.5497C36.6666 18.4128 36.4127 18.3444 36.1187 18.3444C35.8337 18.3444 35.5865 18.4018 35.3771 18.5166C35.1678 18.6313 35.0052 18.7947 34.8894 19.0066C34.778 19.2185 34.7223 19.4724 34.7223 19.7682C34.7223 20.0684 34.778 20.3311 34.8894 20.5563C35.0007 20.777 35.1589 20.947 35.3637 21.0662C35.5731 21.1854 35.8181 21.245 36.0987 21.245C36.2724 21.2406 36.4328 21.2163 36.5797 21.1722C36.7312 21.128 36.8626 21.0618 36.9739 20.9735C37.0853 20.8808 37.1722 20.7638 37.2345 20.6225C37.3013 20.4812 37.3347 20.3135 37.3347 20.1192L37.6488 20.1921H36.5664V19.7417H38.0162V19.9603C38.0162 20.2384 37.9717 20.4879 37.8826 20.7086C37.7935 20.9294 37.6643 21.117 37.4951 21.2715C37.3303 21.426 37.1276 21.543 36.8871 21.6225C36.6466 21.702 36.3749 21.7417 36.072 21.7417Z" fill="#D9D9D9"/>
<path d="M40.6104 21.7417C40.2362 21.7417 39.9289 21.6821 39.6883 21.5629C39.4523 21.4437 39.2763 21.2759 39.1605 21.0596C39.0447 20.8433 38.9868 20.5938 38.9868 20.3113V18.3576H38.5191V17.9205H40.1694V18.3576H39.6883V20.3642C39.6883 20.5541 39.7262 20.7174 39.8019 20.8543C39.8776 20.9868 39.9868 21.0883 40.1293 21.1589C40.2718 21.2296 40.4433 21.2649 40.6438 21.2649C40.862 21.2649 41.0446 21.2296 41.1916 21.1589C41.3431 21.0883 41.4589 20.9868 41.5391 20.8543C41.6192 20.7174 41.6593 20.5541 41.6593 20.3642V18.3576H41.2117V17.9205H42.7016V18.3576H42.2272V20.3444C42.2272 20.6578 42.1604 20.9183 42.0268 21.1258C41.8932 21.3289 41.7061 21.4834 41.4656 21.5894C41.225 21.691 40.94 21.7417 40.6104 21.7417Z" fill="#D9D9D9"/>
<path d="M43.1812 21.6755V21.2384H43.6623V18.3576H43.1812V17.9205H44.8582V18.3576H44.3705V21.2384H44.8582V21.6755H43.1812Z" fill="#D9D9D9"/>
<path d="M45.3632 21.6755V21.2384H45.8242L46.8732 18.3576H46.4656V17.9205H48.5235V18.3576H48.1026L49.1849 21.2384H49.6192V21.6755H47.9689V21.2384H48.45L48.1159 20.2583H46.7997L46.4656 21.2384H46.9333V21.6755H45.3632ZM46.9267 19.8344H47.9823L47.4812 18.3642H47.4478L46.9267 19.8344Z" fill="#D9D9D9"/>
<path d="M50.0764 21.6755V21.2384H50.5642V18.3576H50.0764V17.9205H52.1476C52.4238 17.9205 52.6643 17.9581 52.8692 18.0331C53.0741 18.1038 53.2322 18.2141 53.3436 18.3642C53.4594 18.5143 53.5173 18.7064 53.5173 18.9404C53.5173 19.1126 53.4839 19.2671 53.4171 19.404C53.3547 19.5364 53.2545 19.649 53.1164 19.7417C52.9828 19.83 52.8091 19.894 52.5953 19.9338L53.397 21.2318H53.9048V21.6755H52.8959L51.9205 20.0066H51.5062V19.5563H52.0675C52.259 19.5563 52.4082 19.5276 52.5151 19.4702C52.622 19.4084 52.6977 19.3311 52.7423 19.2384C52.7868 19.1413 52.8091 19.0397 52.8091 18.9338C52.8091 18.8278 52.7846 18.7329 52.7356 18.649C52.6866 18.5607 52.6131 18.4901 52.5151 18.4371C52.4171 18.3841 52.2924 18.3576 52.141 18.3576H51.2657V21.2384H51.7468V21.6755H50.0764Z" fill="#D9D9D9"/>
<path d="M63.1284 31.8411C62.4893 31.8411 61.8813 31.7483 61.3044 31.5629C60.7432 31.362 60.2443 31.0839 59.8078 30.7285C59.3713 30.3576 59.0361 29.9327 58.8023 29.4536H59.1764V31.6093H57.3524V27.1589H59.0127C59.1219 27.7616 59.3401 28.2947 59.6675 28.7583C60.0105 29.2219 60.4548 29.5927 61.0004 29.8709C61.5461 30.1336 62.1775 30.2649 62.8946 30.2649C63.6117 30.2649 64.1729 30.0949 64.5783 29.755C64.9992 29.415 65.2097 28.9283 65.2097 28.2947C65.2097 27.7848 65.1161 27.3907 64.9291 27.1126C64.742 26.819 64.438 26.5872 64.0171 26.4172C63.5961 26.2472 63.0271 26.1082 62.31 26L61.4915 25.8377C60.182 25.606 59.1453 25.1733 58.3814 24.5397C57.6331 23.9062 57.2589 23.0254 57.2589 21.8974C57.2589 21.1247 57.4304 20.468 57.7734 19.9272C58.1319 19.3709 58.6308 18.9459 59.27 18.6523C59.9092 18.3587 60.6575 18.2119 61.5149 18.2119C62.4659 18.2119 63.2999 18.4128 64.0171 18.8146C64.7342 19.2009 65.2486 19.7417 65.5604 20.4371H65.0694V18.4669H66.8232V22.2219H65.2097C65.1161 21.8664 64.9524 21.5033 64.7186 21.1325C64.5003 20.7461 64.1652 20.4294 63.7131 20.1821C63.261 19.9194 62.6374 19.7881 61.8423 19.7881C61.1251 19.7881 60.5639 19.9581 60.1586 20.298C59.7688 20.638 59.574 21.0784 59.574 21.6192C59.574 22.2219 59.8 22.6854 60.2521 23.0099C60.7198 23.3344 61.4058 23.5817 62.31 23.7517L62.918 23.8675C63.9469 24.0375 64.7965 24.277 65.4669 24.5861C66.1373 24.8951 66.6361 25.3201 66.9635 25.8609C67.2909 26.3863 67.4546 27.0662 67.4546 27.9007C67.4546 28.6424 67.2831 29.3068 66.9401 29.894C66.5971 30.4812 66.1061 30.9525 65.4669 31.3079C64.8277 31.6634 64.0482 31.8411 63.1284 31.8411Z" fill="#00BEFF"/>
<path d="M69.6063 31.6093V30.0795H71.29V19.9967H69.6063V18.4669H75.4759V19.9967H73.7688V30.0795H75.4759V31.6093H69.6063Z" fill="#00BEFF"/>
<path d="M77.5942 31.6093V30.0795H79.3013V19.9503H77.5942V18.4669H83.4637V19.9503H81.7567V30.0795H86.761V26.1854H88.585V31.6093H77.5942Z" fill="#00BEFF"/>
<path d="M95.9537 31.6093L91.1131 19.9967H89.5697V18.4669H95.3457V19.9967H93.6386L97.0995 28.9437L100.467 19.9967H98.83V18.4669H104.115V19.9967H102.618L97.918 31.6093H95.9537Z" fill="#00BEFF"/>
<path d="M105.104 31.6093V30.0795H106.718L110.389 19.9967H108.962V18.4669H116.165V19.9967H114.692L118.48 30.0795H120V31.6093H114.224V30.0795H115.908L114.738 26.649H110.132L108.962 30.0795H110.599V31.6093H105.104ZM110.576 25.1656H114.271L112.517 20.0199H112.4L110.576 25.1656Z" fill="#00BEFF"/>
</svg>
