<svg width="16" height="14" viewBox="0 0 16 14" fill="none" xmlns="http://www.w3.org/2000/svg">
<path d="M6.19355 2.25H5.13548V1.16667C5.13548 0.522334 5.62075 0 6.21935 0H9.75484C10.3534 0 10.8387 0.522334 10.8387 1.16667V2.25H9.80645V1.13889H6.19355V2.25Z" fill="black"/>
<path fill-rule="evenodd" clip-rule="evenodd" d="M0 4.83333C0 6.19444 3.66452 7.61111 5.57419 7.91666V7.83333C5.57419 7.37309 5.92081 7 6.34839 7H9.62581C10.0534 7 10.4 7.37309 10.4 7.83333V7.91667C12.3097 7.61111 16 6.19444 16 4.83333C16 3.75001 16 2.91666 15.4323 2.91666H0.567742C5.41441e-06 2.91666 3.05119e-06 3.75001 0 4.83333ZM5.57419 8.63889C4.12946 8.27171 1.56139 7.61904 0.490323 6.56336V13.2778C0.490323 13.6111 0.748387 14 1.00645 14H14.9935C15.2516 14 15.5097 13.6111 15.5097 13.2778V6.56336C14.4474 7.61041 11.887 8.26102 10.4357 8.62983L10.4 8.63889V9.25C10.4 9.71023 10.0534 10.0833 9.62581 10.0833H6.34839C5.92081 10.0833 5.57419 9.71023 5.57419 9.25V8.63889ZM6.14193 9.11112V7.88872C6.14193 7.73531 6.25747 7.61111 6.4 7.61111H9.6C9.74253 7.61111 9.85806 7.73547 9.85806 7.88889V9.11111C9.85806 9.26452 9.74253 9.38889 9.6 9.38889H6.4C6.25747 9.38889 6.14193 9.26454 6.14193 9.11112Z" fill="black"/>
</svg>
